<?xml version="1.0" standalone="no"?>
<!DOCTYPE svg PUBLIC "-//W3C//DTD SVG 1.1//EN" "http://www.w3.org/Graphics/SVG/1.1/DTD/svg11.dtd" >
<svg xmlns="http://www.w3.org/2000/svg">
<metadata></metadata>
<defs>
<font id="plantinlight" horiz-adv-x="1492" >
<font-face units-per-em="2048" ascent="1638" descent="-410" />
<missing-glyph horiz-adv-x="552" />
<glyph unicode="&#xfb01;" horiz-adv-x="1173" d="M39 848v74h63q39 0 58.5 7t29.5 17q14 14 20.5 52t17 85t33 101.5t71.5 103.5q70 70 159 101.5t185 31.5q39 0 88 -8t92 -25.5t71.5 -46t28.5 -69.5q0 -35 -21.5 -58.5t-55.5 -23.5q-41 0 -66 25.5t-50.5 55t-60 55.5t-94.5 26q-66 0 -110.5 -23.5t-73.5 -65.5t-42 -98.5 t-13 -120.5v-122h383q68 0 108.5 4t83.5 16h39v-719q0 -47 5 -79.5t21.5 -52t46 -29t79.5 -9.5v-53h-457v53q47 0 75.5 10.5t44 32t20.5 54t5 77.5v488q0 78 -26.5 105.5t-100.5 27.5h-327v-623q0 -45 5 -77.5t21.5 -53t47 -31t79.5 -10.5v-53h-459v53q39 2 68 8.5 t45.5 24.5t24.5 53t8 97v612h-170z" />
<glyph unicode="&#xfb02;" horiz-adv-x="1173" d="M39 848v74h63q39 0 57.5 6t30.5 18q16 16 21.5 52t15 83t32 101.5t73.5 105.5q59 59 144 96t198 37q55 0 100 -9t74 -17q20 4 51 11t47 15h39v-1202q0 -92 28.5 -130t121.5 -36v-53h-457v53q45 0 73.5 8.5t45 30t22.5 56t6 88.5v612h-456v-625q0 -47 6 -79.5t22.5 -52 t47 -29t77.5 -9.5v-53h-459v53q43 0 72 8.5t45.5 28t22.5 54t6 87.5v617h-170zM369 922h456v286q-23 12 -39 35t-43 49q-37 37 -62.5 48.5t-72.5 11.5q-121 0 -180 -81t-59 -212v-137z" />
<glyph horiz-adv-x="2048" />
<glyph horiz-adv-x="2048" />
<glyph unicode="&#xd;" horiz-adv-x="552" />
<glyph unicode=" "  horiz-adv-x="552" />
<glyph unicode="&#x09;" horiz-adv-x="552" />
<glyph unicode="&#xa0;" horiz-adv-x="552" />
<glyph unicode="!" horiz-adv-x="555" d="M166 90q0 47 32.5 80t80.5 33q47 0 79.5 -33t32.5 -80t-32.5 -80t-79.5 -33t-80 33t-33 80zM172 1322v30q0 41 19.5 58t68.5 17h35q45 0 65.5 -16t20.5 -57q0 -10 -2 -37t-4 -43l-80 -889h-55l-66 893q-2 29 -2 44z" />
<glyph unicode="&#x22;" horiz-adv-x="659" d="M6 1245q0 53 33 87t82 34q53 0 87 -34t34 -87q0 -63 -23 -166l-74 -327h-45l-71 327q-10 51 -16.5 95.5t-6.5 70.5zM420 1245q0 53 32.5 87t82.5 34q53 0 86.5 -34t33.5 -87q0 -63 -22 -166l-74 -327h-45l-72 327q-10 51 -16 95.5t-6 70.5z" />
<glyph unicode="#" horiz-adv-x="1368" d="M92 391v105h227l82 387h-309v104h332l84 410h104l-84 -410h435l86 410h104l-84 -410h205v-104h-227l-82 -387h309v-105h-330l-86 -411h-104l86 411h-437l-86 -411h-104l86 411h-207zM424 496h436l82 387h-436z" />
<glyph unicode="$" horiz-adv-x="1130" d="M123 225q0 37 23.5 62.5t58.5 25.5q43 0 60.5 -29.5t28.5 -68.5t28.5 -78t60.5 -57v592q-135 66 -190.5 144.5t-55.5 191.5q0 123 62.5 206.5t183.5 124.5v82h59v-69q18 4 32.5 6t29.5 4q16 4 29.5 4h29.5q31 0 56.5 -3t58.5 -11v69h59v-84q106 -33 174 -94t68 -127 q0 -29 -20.5 -49t-51.5 -20q-45 0 -66.5 26.5t-35.5 61t-27.5 69.5t-40.5 51v-522q145 -70 210 -158t65 -210q0 -125 -73 -223.5t-202 -141.5v-221h-59v209q-16 -4 -29.5 -5t-27.5 -3t-28.5 -3.5t-31.5 -1.5q-33 0 -59.5 3.5t-59.5 9.5v-209h-59v219q-57 12 -105.5 36.5 t-82 56.5t-53 67t-19.5 67zM240 1061q0 -66 33.5 -115t109.5 -90v418q-68 -29 -105.5 -86.5t-37.5 -126.5zM442 55q35 -10 62.5 -15t66.5 -5q31 0 54.5 3t52.5 9v522q-76 29 -129 47.5t-107 34.5v-596zM442 836q53 -20 108.5 -37t127.5 -43v528q-33 12 -61.5 17.5t-65.5 5.5 q-29 0 -53.5 -3.5t-55.5 -11.5v-456zM737 68q80 35 125 99t45 142q0 74 -41 131.5t-129 102.5v-475z" />
<glyph unicode="%" horiz-adv-x="1622" d="M76 1008q0 158 73.5 252t198.5 94q123 0 198 -94.5t75 -251.5q0 -160 -75 -254.5t-198 -94.5q-125 0 -198.5 94.5t-73.5 254.5zM190 1006q0 -160 37 -230.5t121 -70.5t121 70.5t37 230.5q0 162 -37 232.5t-121 70.5t-121 -70.5t-37 -232.5zM307 -86l920 1507h86 l-918 -1507h-88zM1001 336q0 158 74 252t199 94q123 0 197.5 -94t74.5 -252q0 -160 -74.5 -254t-197.5 -94q-125 0 -199 94t-74 254zM1116 334q0 -160 37 -230.5t121 -70.5t121 70.5t37 230.5q0 162 -37 232.5t-121 70.5t-121 -70.5t-37 -232.5z" />
<glyph unicode="&#x26;" horiz-adv-x="1515" d="M68 342q0 88 46 182t154 166l193 127q-156 178 -156 260q0 55 37 119t102 117q59 49 124 78.5t112 29.5q45 0 94 -23.5t88 -61.5t64.5 -84t25.5 -91q0 -31 -12 -58.5t-45 -60t-89 -74.5t-144 -100q53 -53 106 -114.5t102.5 -124t91.5 -125t72 -113.5q37 49 64.5 99.5 t46 94.5t27 77.5t8.5 52.5q0 53 -31 82.5t-100 42.5v57h419v-57q-41 -4 -71.5 -21.5t-69.5 -56.5q-29 -29 -54.5 -76t-55 -105.5t-64.5 -121t-82 -121.5q27 -49 68 -103.5t75 -89.5q49 -49 95.5 -62t82 -15t57 -6.5t21.5 -34.5q0 -29 -33.5 -40.5t-111.5 -11.5 q-63 0 -113.5 10.5t-94.5 35t-85 65.5t-86 102q-221 -213 -475 -213q-84 0 -157.5 29t-128 78t-86 115.5t-31.5 144.5zM252 442q0 -63 29.5 -123.5t79 -108.5t112 -78t125.5 -30q78 0 155.5 36t151.5 108q-37 55 -77 113.5t-87 123t-104 135t-129 148.5q-74 -53 -123 -95 t-79 -79t-42 -73t-12 -77zM440 1159q0 -68 88 -155l90 -91q55 41 92.5 74t59 58.5t30.5 48t9 45.5q0 31 -19.5 65.5t-48 63t-64.5 47t-67 18.5q-18 0 -46.5 -15t-56.5 -40t-47.5 -55.5t-19.5 -63.5z" />
<glyph unicode="'" horiz-adv-x="329" d="M47 1245q0 53 33 87t82 34q53 0 87 -34t34 -87q0 -63 -23 -166l-74 -327h-45l-71 327q-10 51 -16.5 95.5t-6.5 70.5z" />
<glyph unicode="(" horiz-adv-x="831" d="M225 500q0 172 39 311t107.5 251t164 200t207.5 157l43 -59q-94 -68 -176 -157t-142 -196.5t-95 -235.5t-35 -271q0 -133 35 -257t95 -231.5t142 -196.5t176 -151l-43 -61q-104 59 -198 150t-165 207t-113 252t-42 288z" />
<glyph unicode=")" horiz-adv-x="831" d="M45 -336q94 61 176 150.5t142.5 197t95.5 231.5t35 257q0 143 -35 271t-95.5 235.5t-142.5 196.5t-176 157l43 59q113 -70 207 -157.5t163.5 -199.5t108.5 -251t39 -311q0 -152 -42 -288t-112.5 -252t-164.5 -207t-199 -150z" />
<glyph unicode="*" horiz-adv-x="1044" d="M66 1069l16 53l350 -41l68 346h53l72 -346l338 41l18 -53l-305 -164l145 -319l-43 -33l-254 246l-256 -246l-43 33l148 319z" />
<glyph unicode="+" horiz-adv-x="1366" d="M143 485v109h486v485h108v-485h486v-109h-486v-485h-108v485h-486z" />
<glyph unicode="," horiz-adv-x="555" d="M57 -262q141 10 224.5 72.5t83.5 160.5q0 37 -12.5 60.5t-31 39t-41 21.5t-42.5 6q-18 0 -38 5.5t-36.5 17.5t-27.5 31.5t-11 50.5q0 51 34 81.5t87 30.5q43 0 81 -22.5t66.5 -61t45 -90t16.5 -108.5q0 -74 -29 -136.5t-81 -108.5t-126 -73.5t-162 -29.5v53z" />
<glyph unicode="-" horiz-adv-x="768" d="M78 389v148h614v-148h-614z" />
<glyph unicode="." horiz-adv-x="555" d="M166 90q0 47 33 80t80 33t79.5 -33t32.5 -80t-32.5 -80t-79.5 -33t-80 33t-33 80z" />
<glyph unicode="/" horiz-adv-x="546" d="M0 -276l459 1697h88l-459 -1697h-88z" />
<glyph unicode="0" horiz-adv-x="1110" d="M98 672q0 82 9.5 162.5t31 155.5t56 140.5t88.5 118.5q14 14 39.5 35t59.5 39t78 30.5t95 12.5q72 0 145.5 -31.5t120.5 -79.5q96 -96 142.5 -242.5t46.5 -340.5q0 -168 -38 -319.5t-145 -258.5q-53 -53 -125.5 -86t-146.5 -33q-98 0 -169 43t-114 86q-88 88 -131 231.5 t-43 336.5zM272 672q0 -86 4.5 -169t17.5 -158t38.5 -137.5t68.5 -105.5q31 -31 71 -46t83 -15q53 0 93 19.5t69 48.5q70 70 94.5 212t24.5 351q0 217 -25 353t-100 212q-29 29 -68 46t-88 17q-94 0 -158 -63q-39 -39 -63.5 -97.5t-37.5 -131t-18.5 -158.5t-5.5 -178z" />
<glyph unicode="1" horiz-adv-x="1110" d="M272 1118v66q74 25 160 70.5t146 109.5h65v-1126q0 -57 8 -92t29.5 -53.5t59.5 -24t98 -2.5v-66h-541v66q57 -2 94 2t57.5 22.5t27.5 55t7 100.5v723q0 86 -31.5 117.5t-84.5 31.5h-95z" />
<glyph unicode="2" horiz-adv-x="1110" d="M102 0v74l400 399q147 147 209.5 281.5t62.5 224.5q0 55 -22.5 101t-61.5 80t-94 52.5t-119 18.5q-84 0 -156.5 -33t-146.5 -104l-45 43q55 63 107.5 106t104.5 70.5t106.5 40t117.5 12.5q88 0 159 -28.5t121 -77t76.5 -113t26.5 -135.5q0 -47 -16.5 -103.5t-57 -125 t-108.5 -150.5t-172 -178l-330 -308h502q33 0 57.5 7.5t45 28t38 56t37.5 91.5h70l-113 -330h-799z" />
<glyph unicode="3" horiz-adv-x="1110" d="M106 90q0 18 24 47t52 29q18 0 48 -18.5t69 -40t88 -40t107 -18.5q63 0 116.5 27.5t92 75t61 113t22.5 143.5q0 260 -315 260q-41 0 -100.5 -4.5t-122.5 -14.5l12 64q117 8 201 39.5t139 79t82 103.5t27 114q0 43 -19.5 78.5t-52.5 63.5t-79 43t-97 15 q-76 0 -139.5 -27.5t-131.5 -91.5l-40 46q84 102 173 146t212 44q86 0 151.5 -24.5t108.5 -65.5t64.5 -92t21.5 -105q0 -86 -53.5 -158.5t-161.5 -113.5v-4q139 -37 215.5 -127t76.5 -215q0 -80 -31.5 -166t-99 -156.5t-173 -117t-253.5 -46.5q-61 0 -115.5 9.5t-94 25 t-62.5 36t-23 44.5z" />
<glyph unicode="4" horiz-adv-x="1110" d="M66 324v116l663 924h98v-909h201v-131h-201v-349h-159v349h-602zM154 455h514v714h-4z" />
<glyph unicode="5" horiz-adv-x="1110" d="M125 55q0 8 8 24.5t22.5 32t30 27t31.5 11.5q12 0 41 -12.5t69 -27t89 -26.5t104 -12q66 0 122 23.5t97 65.5t64.5 99t23.5 125q0 59 -26.5 120.5t-79.5 115.5q-37 37 -83 66.5t-108.5 55t-145.5 47t-194 41.5l232 512h473l27 43l55 -32l-82 -148h-463l-104 -227 q293 -43 452.5 -177t159.5 -339q0 -61 -25.5 -145.5t-89 -160t-170 -129t-268.5 -53.5q-111 0 -186.5 22.5t-75.5 57.5z" />
<glyph unicode="6" horiz-adv-x="1110" d="M104 528q0 184 59.5 330t163 251t243 169.5t300.5 85.5l58 -49q-150 -47 -260.5 -112.5t-186 -144.5t-120 -169t-62.5 -182q74 59 161 93t173 34q80 0 150.5 -32t121.5 -87.5t81 -129t30 -159.5q0 -94 -36 -176t-97.5 -143.5t-144.5 -96.5t-177 -35q-104 0 -188 40 t-143.5 112t-92.5 174t-33 227zM279 524q0 -111 21.5 -199.5t59 -151t93 -97.5t122.5 -35q57 0 106.5 26.5t84.5 73.5t55.5 110.5t20.5 139.5q0 70 -21.5 130.5t-60.5 105.5t-92.5 69.5t-114.5 24.5q-123 -1 -268 -103q-4 -25 -5 -45t-1 -49z" />
<glyph unicode="7" horiz-adv-x="1110" d="M106 1012l89 331h827l-545 -1368h-86l488 1221h-514q-47 0 -78 -10t-52.5 -31.5t-36 -57.5t-28.5 -85h-64z" />
<glyph unicode="8" horiz-adv-x="1110" d="M98 293q0 43 12.5 81t49.5 79t102.5 88.5t171.5 113.5q-178 92 -254 183.5t-76 183.5q0 63 29 125.5t85 111t141 78t196 29.5q104 0 181 -25.5t128 -66.5t77 -92.5t26 -102.5q0 -39 -14.5 -74.5t-50.5 -76.5t-98.5 -90.5t-158.5 -114.5q98 -57 167 -108.5t112 -100.5 t61.5 -98t18.5 -101q0 -74 -34 -136t-93.5 -107t-142.5 -71t-183 -26q-121 0 -207 30t-140 76t-80 102.5t-26 109.5zM244 1073q0 -27 9 -52.5t44 -59t103.5 -81.5t187.5 -120q74 49 121 93t74.5 82t37.5 71.5t10 60.5q0 49 -21.5 92t-60 75t-91 49t-113.5 17q-66 0 -120 -17 t-95 -48t-63.5 -72t-22.5 -90zM246 293q0 -53 23.5 -99.5t65.5 -80t98 -53t124 -19.5q74 0 129 23.5t91 58.5t53.5 78t17.5 84q0 39 -13.5 72.5t-52.5 71.5t-108 83.5t-182 108.5q-119 -94 -182.5 -175t-63.5 -153z" />
<glyph unicode="9" horiz-adv-x="1110" d="M100 913q0 94 35 176t96.5 143.5t144.5 97.5t179 36q104 0 188 -40t143.5 -112.5t92.5 -176t33 -228.5q0 -166 -52.5 -308.5t-151.5 -250t-241.5 -179t-320.5 -96.5l-58 50q281 88 438.5 248.5t190.5 359.5q-74 -59 -161 -93t-173 -34q-80 0 -150.5 31.5t-121.5 87 t-81 129t-30 159.5zM274 948q0 -72 21.5 -131t60.5 -104t92.5 -70t114.5 -25q123 1 268 103q4 25 5.5 45t1.5 49q0 111 -21.5 200t-60.5 152.5t-94.5 98t-122.5 34.5q-57 0 -105.5 -26.5t-84.5 -73.5t-55.5 -111.5t-19.5 -140.5z" />
<glyph unicode=":" horiz-adv-x="555" d="M166 90q0 47 33 80t80 33t79.5 -33t32.5 -80t-32.5 -80t-79.5 -33t-80 33t-33 80zM166 829q0 47 33 80t80 33t79.5 -32.5t32.5 -80.5q0 -47 -32.5 -79.5t-79.5 -32.5t-80 32.5t-33 79.5z" />
<glyph unicode=";" horiz-adv-x="555" d="M57 -262q141 10 224.5 72.5t83.5 160.5q0 37 -12.5 60.5t-31 39t-41 21.5t-42.5 6q-18 0 -38 5.5t-36.5 17.5t-27.5 31.5t-11 50.5q0 51 34 81.5t87 30.5q43 0 81 -22.5t66.5 -61t45 -90t16.5 -108.5q0 -74 -29 -136.5t-81 -108.5t-126 -73.5t-162 -29.5v53zM166 829 q0 47 33 80t80 33t79.5 -32.5t32.5 -80.5q0 -47 -32.5 -79.5t-79.5 -32.5t-80 32.5t-33 79.5z" />
<glyph unicode="&#x3c;" horiz-adv-x="1366" d="M143 494v96l1078 454v-116l-934 -387l934 -385v-117z" />
<glyph unicode="=" horiz-adv-x="1366" d="M143 256v109h1080v-109h-1080zM143 723v108h1080v-108h-1080z" />
<glyph unicode="&#x3e;" horiz-adv-x="1366" d="M143 39v117l934 387l-934 385v116l1078 -454v-96z" />
<glyph unicode="?" horiz-adv-x="874" d="M133 1296q0 59 50 95t136 36q51 0 105.5 -30.5t104 -80.5t93.5 -111.5t76.5 -124t51 -120t18.5 -96.5q0 -104 -82 -186q-35 -35 -75 -54.5t-78.5 -35t-74.5 -31.5t-63 -43q-20 -20 -32.5 -63t-16.5 -97h-57q6 29 3 69t-9.5 82t-12.5 80t-6 60q0 23 29 37t73 29.5t95 33 t95 44t72.5 65.5t28.5 96q0 61 -22.5 119.5t-59 105t-84 75t-96.5 28.5q-37 0 -69.5 -7t-60 -16.5t-48 -16.5t-33.5 -7q-51 0 -51 65zM213 90q0 47 33 80t80 33t79.5 -33t32.5 -80t-32.5 -80t-79.5 -33t-80 33t-33 80z" />
<glyph unicode="@" horiz-adv-x="1878" d="M92 461q0 203 73 380t201 307t300 204.5t372 74.5q174 0 309.5 -53t227.5 -145t139 -217t47 -269q0 -80 -16 -161.5t-47 -156.5t-74 -139.5t-94 -113.5q-72 -66 -159 -100.5t-181 -34.5q-80 0 -125 39t-45 108q0 20 2 46t8 55l10 45l-4 4q-104 -147 -191 -222t-183 -75 q-37 0 -68 17.5t-54.5 48t-37 71.5t-13.5 88q0 88 25 175t67 167t97 149.5t115.5 120t123 79t117.5 28.5q57 0 99.5 -37t52.5 -104h4l31 110l190 17l-188 -650q-23 -80 -23 -129q0 -33 22.5 -55t51.5 -22q55 0 124.5 39.5t127.5 103.5q41 45 73.5 102.5t56 122t36 133 t12.5 136.5q0 127 -42 240.5t-134 205.5q-86 86 -207 132t-264 46q-160 0 -312.5 -63.5t-275.5 -186.5q-141 -141 -210 -321t-69 -373q0 -102 18.5 -188t49.5 -158t71 -129t83 -100t100 -83t128 -70t154 -48.5t179 -18.5q190 0 342.5 67t263.5 177q53 53 103.5 124t99.5 187 h59q-39 -127 -122 -238.5t-196.5 -194.5t-255 -131t-296.5 -48q-190 0 -352 65.5t-279 183.5t-182.5 280.5t-65.5 355.5zM684 303q0 -121 90 -121q37 0 75 22.5t71 55.5q55 55 97 122t70.5 136.5t44 138t15.5 127.5q0 61 -28.5 100.5t-76.5 39.5q-41 0 -84 -34t-82.5 -88 t-74.5 -123t-60.5 -137.5t-41 -132t-15.5 -106.5z" />
<glyph unicode="A" d="M16 0v59q29 2 56.5 15.5t54.5 46.5t55.5 86t61.5 133l395 985l-31 72h191l475 -1127q25 -59 47 -97t46 -60.5t50.5 -34.5t59.5 -19v-59h-545v59q88 4 129 30t41 83q0 16 -2 32.5t-8.5 38t-18.5 51.5t-31 75l-79 184h-549l-58 -152q-29 -74 -40 -114.5t-11 -73.5 q0 -70 46 -110t132 -44v-59h-467zM446 641h480l-252 602z" />
<glyph unicode="B" horiz-adv-x="1386" d="M55 0v59h21q58 -1 93 9q42 12 63.5 35.5t27.5 58.5t6 80v925q0 41 -7 73t-29.5 54.5t-63.5 33.5q-35 9 -90 9h-21v60h707q119 0 207 -28t144 -74t84 -105.5t28 -124.5q0 -51 -18.5 -104.5t-64.5 -98.5t-123 -78.5t-196 -46.5v-4q211 -23 335 -109.5t124 -252.5 q0 -61 -26.5 -128t-88 -120t-161 -88t-242.5 -35h-709zM457 205q0 -80 46 -113t156 -33h107q137 0 216 81t79 225q0 168 -117 252.5t-326 84.5h-161v-497zM457 762h196q188 0 272.5 75.5t84.5 196.5q0 61 -20.5 116.5t-60.5 96.5t-99.5 65.5t-139.5 24.5h-233v-575z" />
<glyph unicode="C" horiz-adv-x="1579" d="M123 686q0 178 70.5 315.5t184.5 230.5t255 141t282 48q121 0 250 -24.5t230 -69.5l53 -309h-68q-90 172 -204.5 253t-276.5 81q-127 0 -220 -41t-153 -101q-94 -94 -138 -223t-44 -276q0 -166 51 -295t156 -234q66 -66 159 -101.5t205 -35.5q188 0 306 87t174 269h63 l-6 -299q-51 -29 -117.5 -52t-140.5 -39.5t-151.5 -26t-151.5 -9.5q-170 0 -310.5 52.5t-242.5 146.5t-158.5 225t-56.5 287z" />
<glyph unicode="D" horiz-adv-x="1728" d="M55 0v59h25q57 -1 94 7q45 10 69.5 32.5t33 57t8.5 84.5v915q0 47 -8.5 83t-33 58.5t-69.5 32.5q-38 8 -95 8h-24v60h779q190 0 334.5 -56.5t242.5 -150.5t147.5 -217t49.5 -256q0 -92 -18.5 -170t-48.5 -143.5t-68.5 -118t-79.5 -92.5q-45 -45 -99.5 -81t-129 -60.5 t-174 -38t-230.5 -13.5h-705zM475 279q0 -117 60.5 -168.5t218.5 -51.5q145 0 268 33t211 121q47 47 77.5 102.5t49 113.5t26 117.5t7.5 112.5q0 147 -44 272.5t-137 217.5q-88 88 -213 138t-299 50h-225v-1058z" />
<glyph unicode="E" horiz-adv-x="1343" d="M49 0v59h23q48 1 82 7q42 8 67 29.5t35 57t10 89.5v921q0 100 -45 138q-43 36 -160 36h-12v60h1145l12 -301h-59q-35 117 -114 179t-234 62h-342v-581h276q125 0 201 50t80 171h59v-500h-59q-8 55 -26.5 97t-53.5 69t-87 40t-128 13h-262v-426q0 -72 7 -113.5t34.5 -63 t84 -28t154.5 -6.5q106 0 186.5 18.5t139.5 53.5t102 85t78 114h66l-84 -330h-1176z" />
<glyph unicode="F" horiz-adv-x="1280" d="M29 1337v60h1216v-318h-59q-23 63 -50.5 111.5t-68.5 81.5t-100.5 49t-145.5 16h-364v-559h291q143 0 198 47t66 148h59v-506h-59q-18 137 -82 194.5t-203 57.5h-270v-483q0 -49 8 -84t34.5 -56.5t74.5 -31.5q33 -7 81 -6q20 0 43 1v-59h-661v59h26q53 1 88 7 q44 8 69.5 29.5t35.5 56t10 86.5v923q0 45 -9 80t-35 57q-26 23 -72 33q-33 7 -80 7q-20 0 -41 -1z" />
<glyph unicode="G" horiz-adv-x="1728" d="M117 678q0 164 62.5 301t174 235.5t266 152.5t341.5 54q129 0 246.5 -23.5t252.5 -74.5l25 -305h-60q-63 162 -191 248t-304 86q-123 0 -230.5 -44t-187.5 -126t-127 -200t-47 -265t44 -271t124 -213.5t190.5 -138.5t243.5 -49q102 0 202.5 26.5t166.5 71.5v320 q0 51 -9.5 87t-36 57.5t-75.5 29.5q-39 6 -98 6h-31v59h645v-59h-21q-94 0 -137 -34q-47 -38 -47 -140v-387q-147 -53 -284.5 -80t-260.5 -27q-158 0 -308 40t-268 125t-189.5 218.5t-71.5 319.5z" />
<glyph unicode="H" horiz-adv-x="1685" d="M51 0v59q66 0 107 9.5t63.5 31t30.5 56t8 88.5v917q0 49 -9 83t-31.5 55.5t-63.5 30.5q-34 7 -82 7h-23v61h613v-61q-13 1 -26 1q-38 0 -68 -5q-40 -6 -66.5 -24.5t-39.5 -53t-13 -90.5v-413h784v413q0 94 -44 134q-42 38 -157 38h-12v61h612v-61q-66 0 -105.5 -8 t-63 -28.5t-32 -55.5t-8.5 -84v-921q0 -51 9.5 -87t33 -57.5t64.5 -31.5q29 -7 68 -6q16 0 34 1v-59h-612v59h20q52 1 88 9q42 10 65.5 31.5t31.5 55t8 78.5v441h-784v-418q0 -57 8 -95t31.5 -61.5t64.5 -33.5q34 -8 86 -7h23v-59h-613z" />
<glyph unicode="I" horiz-adv-x="724" d="M45 0v59h24q50 1 85 7q43 8 68.5 27.5t35.5 53t10 82.5v942q0 45 -8 77t-32.5 52.5t-68.5 29.5q-36 7 -89 7h-25v60h635v-60h-24q-102 1 -147 -31q-50 -36 -50 -135v-935q0 -49 10 -84t34.5 -56.5t67.5 -31.5q30 -7 72 -6q18 0 37 1v-59h-635z" />
<glyph unicode="J" horiz-adv-x="641" d="M-143 -213q0 41 25.5 65.5t66.5 24.5q45 0 67.5 -23.5t38 -51t32.5 -51t52 -23.5q51 0 74 47t23 180v1221q0 39 -9.5 70.5t-34 53t-69.5 31.5q-32 7 -78 7q-18 0 -39 -1v60h633v-60q-66 0 -106.5 -10t-64.5 -31.5t-33 -54.5t-9 -80v-991q0 -147 -28.5 -250.5 t-100.5 -175.5q-53 -53 -113.5 -74.5t-113.5 -21.5q-92 0 -152.5 40t-60.5 99z" />
<glyph unicode="K" horiz-adv-x="1642" d="M45 0v59h23q52 -1 87 7q42 10 66.5 31.5t32.5 55t8 80.5v932q0 100 -46 138q-42 34 -148 34h-23v60h623v-60q-59 0 -100.5 -6t-67 -24.5t-36.5 -54t-11 -93.5v-907q0 -53 8 -90t30.5 -61.5t65.5 -34.5q31 -8 75 -8q17 0 36 1v-59h-623zM471 713q119 84 203 145.5 t141 105.5t94 75.5t64 58.5q43 43 59.5 72.5t16.5 60.5q0 94 -144 106v60h576v-60q-29 0 -65 -9t-77 -30q-57 -29 -131.5 -86t-162 -129.5t-182.5 -151.5t-193 -149q70 -53 147.5 -118.5t156.5 -135t155.5 -137t144 -126t124 -102.5t93.5 -63q33 -16 69.5 -27.5t75.5 -13.5 v-59h-329q-76 57 -157 128t-178.5 159t-219 193.5t-281.5 232.5z" />
<glyph unicode="L" horiz-adv-x="1409" d="M23 0v59h29q59 1 97 7q48 8 73.5 29.5t34.5 57t9 89.5v925q0 45 -10 79t-36 54q-28 21 -74 30q-38 7 -91 7h-24v60h659v-60h-29q-49 0 -84 -5q-45 -7 -71.5 -27.5t-37.5 -56.5t-11 -93v-922q0 -90 42 -132t152 -42h293q74 0 132.5 23.5t104.5 62.5t84 90.5t72 106.5h62 l-96 -342h-1280z" />
<glyph unicode="M" horiz-adv-x="2048" d="M20 0v59q55 6 94.5 35t66 80t44 122t33.5 161l80 454q12 68 21.5 136.5t9.5 132.5q0 76 -44 118q-42 40 -115 39h-7v60h358q2 -39 22.5 -105.5t48 -141.5t57.5 -148.5t52 -124.5l95 -209q27 -57 48 -100.5t42.5 -86.5t45 -95t54.5 -128q10 27 21.5 52.5t24.5 54 t30.5 64.5t42.5 83l149 295q57 117 94 202t56.5 152.5t27 122.5t7.5 113h387v-60h-18q-81 -1 -115 -33q-37 -36 -37 -122q0 -23 3 -55.5t7 -71.5l106 -793q8 -55 22.5 -93t38 -61.5t58.5 -35t82 -13.5v-59h-594v59q92 2 143.5 46.5t51.5 121.5q0 10 -4 67.5t-15 149.5 l-79 699h-5q-10 -29 -18 -51.5t-27 -65.5q-18 -43 -30.5 -71.5t-24.5 -54.5t-26.5 -55.5t-36.5 -74.5l-70 -135q-35 -68 -56.5 -111t-37 -73.5t-26.5 -55t-25 -55.5q-35 -78 -63 -144.5t-42 -107.5q-8 -29 -13 -45t-9 -43h-80q-18 76 -47 152.5t-82 191.5l-199 420 q-47 100 -89 200.5t-65 178.5h-4l-114 -764q-8 -47 -10.5 -71.5t-2.5 -53.5q0 -92 42 -135t149 -60v-59h-484z" />
<glyph unicode="N" horiz-adv-x="1728" d="M18 1337v60h304l1069 -1100v793q0 129 -62.5 187t-185.5 60v60h547v-60q-68 -4 -111 -25.5t-67.5 -61.5t-34 -98t-9.5 -134v-789q0 -27 5.5 -61.5t10.5 -70.5t10 -66.5t5 -48.5h-108q-10 18 -29 43.5t-41.5 53t-46 54.5t-43.5 47l-858 893v-786q0 -113 65.5 -167 t186.5 -61v-59h-574v59q13 -1 25 -1q96 0 154 56q66 64 65 173v860l-80 82q-31 33 -54.5 52t-45 31.5t-45 17.5t-52.5 7z" />
<glyph unicode="O" horiz-adv-x="1665" d="M121 694q0 160 55 293t151.5 229.5t227.5 150.5t283 54q174 0 306 -63.5t221 -165.5t134 -232.5t45 -263.5q0 -115 -40 -241.5t-126 -233t-222 -176.5t-329 -70q-141 0 -270 49.5t-225 141.5t-153.5 225t-57.5 303zM336 780q0 -139 35 -272t100.5 -235.5t162.5 -165 t220 -62.5q94 0 180 35t151.5 105.5t104.5 176t39 248.5q0 158 -37 293t-106.5 235.5t-166.5 157t-216 56.5q-76 0 -158 -31t-150.5 -98.5t-113.5 -176t-45 -266.5z" />
<glyph unicode="P" horiz-adv-x="1280" d="M45 1337v60h535q70 0 116.5 -1t80.5 -3t58.5 -5.5t49.5 -9.5q160 -35 243.5 -123t83.5 -221q0 -84 -35.5 -156.5t-98 -125t-148.5 -82t-187 -29.5q-102 0 -135 13.5t-33 35.5q0 16 11.5 26.5t34.5 10.5q14 0 40.5 -2t36.5 -2q49 0 101.5 15.5t95.5 49t69.5 87t26.5 129.5 q0 72 -23.5 133t-68.5 105t-109.5 69.5t-146.5 25.5h-188v-1101q0 -53 10 -88t36.5 -55.5t69.5 -28.5q34 -6 83 -5h28v-59h-629v59h23q42 -1 74 5q40 8 66 27.5t37 54t11 87.5v932q0 43 -8 77t-31.5 55.5t-66.5 31.5q-36 8 -90 8h-23z" />
<glyph unicode="Q" horiz-adv-x="1665" d="M121 692q0 156 54 290t149.5 231.5t227.5 152.5t286 55q178 0 310 -65.5t220 -170t132 -233.5t44 -256q0 -131 -42 -249.5t-115.5 -212t-175 -158t-222.5 -84.5v-4q68 -31 132.5 -67t137 -71.5t161.5 -68.5t206 -57v-78q-53 -12 -117 -13q-92 0 -217 34t-272 108 q-47 25 -98.5 54.5t-97.5 57t-82 50t-54 30.5q-41 20 -83 36.5t-87 38t-92 53.5t-96 81q-117 117 -163 249t-46 267zM336 780q0 -154 38 -288t106.5 -233t163.5 -156.5t210 -57.5q94 0 180 35t151.5 105.5t104.5 176t39 248.5q0 86 -13 172t-40 167t-67 151.5t-93 124.5 q-18 18 -49 40.5t-71 42t-89 32t-104 12.5q-80 0 -163 -32t-150.5 -100.5t-110.5 -177t-43 -262.5z" />
<glyph unicode="R" d="M53 0v59h20q52 1 87 9q41 10 63.5 31.5t30.5 57.5t8 85v921q0 45 -9 79t-31.5 55.5t-63.5 31.5q-34 8 -84 8h-21v60h686q111 0 201 -28t153.5 -75t98.5 -112.5t35 -141.5q0 -51 -18.5 -105t-63.5 -102.5t-120 -85t-187 -53.5q43 -49 87 -96t70 -76l252 -293 q84 -98 137.5 -130.5t100.5 -35.5v-43q-88 -20 -156 -20q-41 0 -78 10t-72.5 34t-75.5 62.5t-87 96.5l-338 405q-14 16 -25.5 26.5t-24 15.5t-28.5 7t-41 2h-106v-417q0 -49 8 -84t30.5 -57.5t63.5 -32.5q34 -9 87 -9h20v-59h-609zM453 735h163q211 0 300.5 76t89.5 209 q0 70 -21.5 129t-68 100t-119 64.5t-176.5 23.5h-168v-602z" />
<glyph unicode="S" horiz-adv-x="1216" d="M125 432h70q18 -186 119.5 -281.5t277.5 -95.5q72 0 132 17.5t103 48.5t67 74t24 96q0 43 -18.5 88t-53.5 80q-49 49 -127 95t-163 93t-167 97.5t-139 107.5q-37 37 -64.5 90t-27.5 129q0 80 32.5 144.5t91 110.5t141.5 70.5t185 24.5q137 0 241.5 -33.5t190.5 -80.5 v-279h-69q-23 154 -118 239t-247 85q-133 0 -210 -54.5t-77 -148.5q0 -41 16.5 -74t41.5 -57q49 -49 127 -93t163 -89t168 -94.5t144 -110.5q53 -53 82 -116.5t29 -139.5q0 -66 -25 -135.5t-83 -129t-154.5 -97.5t-239.5 -38q-106 0 -229 27t-228 74z" />
<glyph unicode="T" horiz-adv-x="1599" d="M41 1067l25 330h1466l27 -330h-58q-33 78 -66.5 130t-70.5 83t-80 44t-94 13h-295v-1091q0 -53 9 -90t33 -58q23 -22 65 -32q34 -8 87 -7h23v-59h-618v59h24q43 -1 75 5q40 8 64.5 28.5t36 57t11.5 96.5v1091h-267q-66 0 -115 -15t-87.5 -47t-71.5 -83t-64 -125h-59z" />
<glyph unicode="U" horiz-adv-x="1642" d="M23 1337v60h632v-60h-26q-57 0 -93 -7q-44 -9 -70 -29.5t-34 -52t-8 -72.5v-713q0 -182 111.5 -291t322.5 -109q127 0 210 37t130 84q135 135 135 408v471q0 68 -10 119t-35.5 84.5t-72 52t-117.5 18.5v60h518v-60q-55 -6 -94 -18t-65.5 -39t-39 -74t-12.5 -123v-518 q0 -299 -147.5 -444.5t-438.5 -145.5q-152 0 -262.5 37t-182 100.5t-106.5 146.5t-35 175v711q0 47 -5 84t-26.5 61.5t-63.5 36.5q-36 10 -95 10h-20z" />
<glyph unicode="V" d="M18 1337v60h551v-60q-159 -10 -159 -109q0 -34 12 -75t22 -63l240 -508q49 -106 86 -191.5t59 -134.5q35 84 78 177t74 169l109 270q51 125 70.5 197t19.5 125q0 61 -40 100t-108 43v60h443v-60q-76 -12 -134 -69q-33 -33 -54 -76t-41.5 -101.5t-46 -134t-66.5 -174.5 l-146 -346q-16 -39 -39.5 -89t-48.5 -109.5t-47.5 -126t-34.5 -136.5h-98q-6 35 -20.5 83t-34 100.5t-41 106.5t-43.5 102l-338 727q-37 78 -61.5 125t-48 72.5t-50.5 34.5t-64 11z" />
<glyph unicode="W" horiz-adv-x="2091" d="M16 1337v60h488v-60q-55 -6 -88 -37.5t-33 -85.5q0 -47 34 -130t92 -206.5t135 -291.5t163 -389q12 33 37.5 86t56.5 112.5t63.5 123t61.5 118.5l-211 444q-39 82 -65.5 132.5t-49 77t-45 35.5t-53.5 11v60h473v-60q-47 -4 -74.5 -32.5t-27.5 -75.5q0 -45 17.5 -88 t35.5 -80l107 -211l118 225q2 6 9.5 22.5t14.5 37t12 41t5 36.5q0 49 -31.5 85t-78.5 40v60h377v-60q-33 -4 -62 -22.5t-58.5 -55t-62.5 -93t-71 -134.5l-134 -260q35 -74 75 -159t76 -160.5t62.5 -134t32.5 -78.5q35 78 65.5 140t61.5 132l137 317q23 51 43.5 106.5t37 106 t25.5 91.5t9 63q0 131 -131 141v60h401v-60q-6 0 -17 -4t-25.5 -9t-26.5 -11t-21 -15q-27 -27 -57.5 -86t-63.5 -137l-202 -487q-16 -41 -54 -121t-79 -170t-74 -177t-41 -145h-86q-14 59 -43 132t-64 149l-147 309l-197 -387q-23 -41 -37 -71.5t-23 -53t-15.5 -41 t-10.5 -37.5h-88q-10 66 -108 289l-310 688q-49 111 -84.5 205t-82.5 141q-20 20 -45 29.5t-48 9.5z" />
<glyph unicode="X" horiz-adv-x="1579" d="M37 1337v60h643v-60q-14 1 -26 1q-67 0 -97 -18q-35 -22 -35 -58q0 -16 7.5 -36t24.5 -47.5t48 -67.5t78 -97l158 -193l178 211q61 72 89 122t28 79q0 98 -160 104v60h518v-60q-25 -4 -48.5 -11t-50 -21.5t-58 -40t-74.5 -68.5q-51 -51 -98.5 -104.5t-100.5 -118.5 l-174 -209l434 -518q51 -59 86 -95t65.5 -56.5t60.5 -27t71 -8.5v-59h-656v59q168 6 168 88q0 37 -32.5 90.5t-110.5 147.5l-205 242l-178 -207q-47 -55 -76 -93t-45 -66t-21.5 -47t-5.5 -38q0 -102 148 -117v-59h-535v59q41 2 81 17.5t86 52.5t103.5 96.5t133.5 149.5 l262 311l-262 322q-14 18 -43 50t-60.5 67.5t-62.5 67.5t-47 48q-52 53 -102 75q-45 21 -98 21h-9z" />
<glyph unicode="Y" d="M16 1337v60h611v-60q-15 1 -28 1q-72 0 -103 -18q-37 -22 -37 -65q0 -35 19.5 -72.5t66.5 -109.5l270 -403l217 305q47 68 77 132t30 99q0 113 -158 131v60h498v-60q-33 0 -64 -12t-65.5 -43t-77.5 -84t-98 -135l-332 -481v-340q0 -47 8 -82t31.5 -58.5t63.5 -33.5 q34 -9 84 -9h20v-59h-603v59q61 0 101.5 9.5t63 31t31.5 56t9 86.5v352l-381 565q-37 55 -65.5 89t-56 52.5t-58.5 26.5t-74 10z" />
<glyph unicode="Z" horiz-adv-x="1409" d="M80 0v59l975 1270h-449q-80 0 -136 -8t-97 -34.5t-72 -77t-59 -134.5h-60v322h1121v-47l-988 -1282h586q57 0 101.5 7t87.5 36.5t90 89t108 161.5h62l-93 -362h-1177z" />
<glyph unicode="[" horiz-adv-x="704" d="M264 -371v1768h412v-70h-35q-133 0 -182 -28.5t-49 -106.5v-1358q0 -80 49 -107.5t182 -27.5h35v-70h-412z" />
<glyph unicode="\" horiz-adv-x="546" d="M0 1421h88l459 -1697h-88z" />
<glyph unicode="]" horiz-adv-x="704" d="M29 -301h34q135 0 183.5 28.5t48.5 106.5v1358q0 80 -48 107.5t-184 27.5h-34v70h411v-1768h-411v70z" />
<glyph unicode="^" horiz-adv-x="995" d="M49 680l428 717h39l428 -717h-104l-344 575l-342 -575h-105z" />
<glyph unicode="_" horiz-adv-x="1024" d="M-18 -154h1058v-102h-1058v102z" />
<glyph unicode="`" horiz-adv-x="681" d="M195 1341q0 20 10 26.5t41 6.5h49q51 0 71.5 -13t36.5 -56l89 -234h-72l-203 229q-10 10 -16 22.5t-6 18.5z" />
<glyph unicode="a" horiz-adv-x="960" d="M78 197q0 49 16.5 87t56 70.5t106.5 63.5t169 65l188 64v160q0 78 -53 125t-141 47q-70 0 -121 -34t-51 -77q0 -18 8 -35.5t18.5 -34t18.5 -30t8 -23.5t-19.5 -23.5t-44 -23.5t-46 -17.5t-25.5 -7.5q-16 0 -35.5 42t-19.5 87q0 51 27.5 95.5t77.5 76t118.5 50t148.5 18.5 q154 0 222.5 -61.5t68.5 -184.5v-475q0 -102 55 -102q35 0 74 22l19 -51q-94 -113 -174 -113q-127 0 -134 164q-72 -80 -149.5 -122t-149.5 -42q-104 0 -170.5 60.5t-66.5 159.5zM244 242q0 -61 43 -100.5t110 -39.5q115 0 217 113v279l-243 -107q-127 -55 -127 -145z" />
<glyph unicode="b" horiz-adv-x="1130" d="M14 1300v31l305 90v-659q94 98 170 139t166 41q100 0 175 -45t124.5 -114.5t73 -151.5t23.5 -156q0 -88 -32 -176t-95.5 -159.5t-155.5 -117t-215 -45.5q-125 0 -214 31t-179 90v1135zM319 291q0 -63 26 -110.5t66 -79t88 -48t95 -16.5q139 0 218 99.5t79 271.5 q0 88 -22.5 162.5t-64.5 128t-99.5 83t-124.5 29.5q-133 0 -261 -119v-401z" />
<glyph unicode="c" horiz-adv-x="960" d="M84 446q0 106 37 197.5t103.5 158t156.5 103.5t197 37q137 0 224 -52t87 -136q0 -41 -21.5 -64.5t-56.5 -23.5q-33 0 -50.5 16t-29.5 39.5t-23.5 52.5t-31 52.5t-52 40t-87.5 16.5q-135 0 -214 -95.5t-79 -255.5q0 -90 25.5 -164.5t72.5 -129t110.5 -85t141.5 -30.5 q143 0 268 127l41 -29q-66 -117 -165 -180.5t-210 -63.5q-92 0 -173 35t-141 97.5t-95 148.5t-35 188z" />
<glyph unicode="d" horiz-adv-x="1153" d="M84 412q0 86 31.5 180t94 172t155 128t213.5 50q70 0 124 -16.5t109 -57.5v365l-158 67v31l318 90v-1218q0 -66 19.5 -94.5t66.5 -28.5q41 0 63 6v-53l-309 -53v170q-47 -47 -89 -80t-82 -53.5t-82 -30t-87 -9.5q-82 0 -152.5 33t-123 91.5t-82 138t-29.5 172.5zM244 506 q0 -90 23.5 -165t66.5 -128t101.5 -84t127.5 -31q70 0 129.5 30t118.5 95v359q0 57 -19.5 110t-55.5 94t-87 66t-117 25q-131 0 -209.5 -100.5t-78.5 -270.5z" />
<glyph unicode="e" horiz-adv-x="937" d="M80 453q0 106 31.5 196t87 154.5t132.5 101.5t169 37q78 0 145.5 -27.5t117.5 -77t80.5 -115t33.5 -140.5h-658v-27q1 -100 27 -177q30 -87 83.5 -143.5t121 -84t139.5 -27.5q78 0 133 24.5t119 88.5l35 -35q-150 -223 -367 -224q-94 0 -173 36t-136.5 98.5t-89 149.5 t-31.5 192zM227 639h457q-12 117 -68.5 180.5t-148.5 63.5q-90 0 -155.5 -66.5t-84.5 -177.5z" />
<glyph unicode="f" horiz-adv-x="681" d="M47 0v53h20q41 0 69 7q34 8 52.5 28.5t24.5 55t6 83.5v621h-168v74h38q51 0 73 4q28 6 45 22q18 18 22 60.5t11.5 92.5t25 105.5t64.5 102.5q53 53 126.5 82.5t172.5 29.5q102 0 157.5 -29.5t55.5 -82.5q0 -35 -23.5 -58.5t-60.5 -23.5q-33 0 -59.5 19.5t-51 43t-49.5 43 t-55 19.5q-43 0 -74 -18.5t-50.5 -49.5t-29.5 -70.5t-10 -85.5v-206h237v-74h-237v-617q0 -59 7 -95t29.5 -55.5t63.5 -25.5q25 -4 59 -4q23 0 50 2v-53h-541z" />
<glyph unicode="g" horiz-adv-x="1044" d="M51 -205q0 49 44 107.5t128 117.5q-55 16 -86 44t-31 63q0 18 6.5 37.5t25 43t52 55.5t86.5 79q-78 37 -124 108.5t-46 159.5q0 70 29 131.5t78 105.5t115.5 69.5t144.5 25.5q68 0 110 -10t85 -25q45 -12 101 -23.5t155 -11.5q27 0 47 1t45 4v-119q-10 -4 -25.5 -5 t-27.5 -1q-41 0 -83 7t-92 21l-4 -4q27 -33 39.5 -77t12.5 -89q0 -68 -29 -125t-78 -100t-115.5 -67.5t-142.5 -24.5q-82 0 -133 20q-41 -33 -64.5 -60.5t-23.5 -47.5q0 -35 49 -49.5t178 -14.5h162q164 -2 246 -56t82 -155q0 -72 -41 -132t-113 -104t-171 -68.5t-216 -24.5 q-72 0 -139.5 12t-119.5 36.5t-84 60.5t-32 85zM178 -166q0 -66 82 -106.5t207 -40.5q82 0 153.5 14t124 38.5t83 58.5t30.5 73q0 68 -63.5 91.5t-223.5 23.5q-53 0 -93 1t-70.5 3t-57 5t-53.5 7q-63 -49 -91 -88t-28 -80zM274 645q0 -131 59.5 -209t160.5 -78 q84 0 133 57.5t49 155.5q0 29 -6 80t-29 101.5t-66 87.5t-114 37q-88 0 -137.5 -60.5t-49.5 -171.5z" />
<glyph unicode="h" horiz-adv-x="1130" d="M23 0v53q78 0 114.5 29t36.5 119v1032l-143 67v31l303 90v-653q180 174 354 174q123 0 196.5 -74.5t73.5 -208.5v-444q0 -92 29 -127t115 -35v-53h-445v53q86 0 114 39t28 137v373q0 113 -44 168t-141 55q-72 0 -143.5 -30.5t-136.5 -89.5v-474q0 -51 6 -84.5t22.5 -54 t46 -30t76.5 -9.5v-53h-462z" />
<glyph unicode="i" horiz-adv-x="532" d="M37 0v53q51 0 82 8.5t48 28t23.5 55t6.5 91.5v520l-150 67v31l309 88v-715q0 -96 28 -135t116 -39v-53h-463zM170 1317q0 43 30.5 73.5t73.5 30.5t74 -30.5t31 -73.5t-31 -74t-74 -31t-73.5 31t-30.5 74z" />
<glyph unicode="j" horiz-adv-x="512" d="M25 -340q57 88 92 156.5t53 121t24.5 93.5t6.5 75v648l-160 67v33l319 88v-846q0 -49 -9 -88t-39.5 -89t-87 -120.5t-150.5 -183.5zM160 1317q0 43 30.5 73.5t73.5 30.5t74 -30.5t31 -73.5t-31 -74t-74 -31t-73.5 31t-30.5 74z" />
<glyph unicode="k" horiz-adv-x="1003" d="M23 0v53q74 4 105.5 36t31.5 112v1032l-135 67v31l294 90v-1196q0 -41 4.5 -72.5t19.5 -54t45 -34t83 -11.5v-53h-448zM328 479l184 162q66 57 89.5 87t23.5 58q0 41 -33 59.5t-107 22.5v54h478v-54q-35 -2 -65 -10t-63.5 -26.5t-72.5 -49t-92 -77.5l-193 -170l402 -377 q47 -47 80.5 -71t60.5 -34v-53h-182q-41 29 -82 63.5t-70 63.5z" />
<glyph unicode="l" horiz-adv-x="512" d="M25 0v53q43 2 72.5 9.5t46 25.5t23.5 54t7 96v995l-149 63v35l309 90v-1188q0 -53 6 -87.5t22.5 -55t44 -29t72.5 -8.5v-53h-454z" />
<glyph unicode="m" horiz-adv-x="1748" d="M31 0v53q51 0 83.5 8.5t49 30t23 58t6.5 94.5v510l-142 69v31l301 88v-162q72 78 160 120t176 42q96 0 168 -48t92 -126q86 90 172 132t178 42q41 0 89.5 -13.5t89.5 -42t68.5 -76.5t27.5 -116v-469q0 -47 5 -78.5t20.5 -53t45 -31t76.5 -9.5v-53h-448v53h8q66 0 98 33 q34 35 35 129v379q0 49 -9 90t-31.5 70.5t-61.5 47t-99 17.5q-63 0 -127.5 -27.5t-121.5 -80.5v-494q1 -88 29 -128q26 -36 102 -36h16v-53h-459v53h9q83 0 112 37q31 39 31 137v412q0 82 -53.5 130t-145.5 48q-66 0 -131 -27.5t-121 -78.5v-488q0 -98 29 -134t117 -36v-53 h-467z" />
<glyph unicode="n" horiz-adv-x="1153" d="M41 0v53q43 0 72.5 7.5t48 26.5t26 54t7.5 90v523l-146 67v29l305 92v-176q78 78 167 127t188 49q117 0 194.5 -74.5t77.5 -222.5v-424q0 -49 6 -80.5t23.5 -51t46 -28t73.5 -8.5v-53h-468v53q49 0 80.5 8.5t49 30t23.5 55t6 82.5v404q0 82 -49 135t-135 53 q-72 0 -146.5 -31.5t-136.5 -91.5v-465q0 -49 4 -83.5t21.5 -56t50.5 -31.5q28 -9 71 -9h17v-53h-477z" />
<glyph unicode="o" horiz-adv-x="1087" d="M84 459q0 104 35 192t97.5 152.5t146 101.5t182.5 37q98 0 182 -37t145.5 -100.5t96.5 -150.5t35 -187q0 -102 -35 -192.5t-96.5 -156t-144.5 -103.5t-179 -38q-100 0 -185 36t-147.5 100.5t-97.5 153t-35 192.5zM244 549q0 -49 9 -108.5t28.5 -120t49 -115.5t68.5 -94 q25 -25 70 -49.5t113 -24.5q57 0 105 22.5t83 63.5t54.5 97t19.5 124q0 37 -6.5 96.5t-22.5 127t-47 133t-80 114.5q-29 29 -72 48.5t-94 19.5q-49 0 -98 -16.5t-89 -55.5t-65.5 -103.5t-25.5 -158.5z" />
<glyph unicode="p" horiz-adv-x="1173" d="M35 -332q61 0 92 13.5t43 38t12 59.5v76v899l-147 69v29l307 90v-172q160 172 338 172q84 0 155.5 -32.5t124 -91t82 -138.5t29.5 -174q0 -104 -39 -200.5t-105.5 -169.5t-154.5 -116t-184 -43q-66 0 -129.5 19.5t-116.5 56.5v-225q0 -47 3 -78t20.5 -49t54.5 -25.5 t104 -7.5v-53h-489v53zM342 358q0 -68 20.5 -125t57.5 -99t89 -66.5t118 -24.5q129 0 206.5 101.5t77.5 269.5q0 92 -22.5 168.5t-64.5 130t-101 83t-131 29.5q-68 0 -127 -29.5t-123 -95.5v-342z" />
<glyph unicode="q" horiz-adv-x="1130" d="M86 440q0 109 37 201t102.5 158.5t156.5 104.5t200 38q88 0 170 -25.5t147 -72.5v53q0 31 4 38t25 7h18q16 0 20.5 -6t4.5 -39v-1087q0 -88 39 -116q36 -26 112 -26h11v-53h-484v53q59 0 92 11.5t48.5 35t18.5 59.5t3 85v305q-82 -96 -162 -141.5t-170 -45.5 q-86 0 -157.5 35t-124 96.5t-82 146.5t-29.5 185zM246 516q0 -90 22.5 -165t63.5 -128t98 -81.5t127 -28.5t126 25.5t128 90.5v400q0 53 -19.5 100t-55.5 81t-86 53.5t-109 19.5q-139 0 -217 -97.5t-78 -269.5z" />
<glyph unicode="r" horiz-adv-x="768" d="M33 0v53q88 0 125 28t37 120v553l-162 69v29l321 90v-235h4q59 123 118 174t124 51q27 0 54.5 -10.5t50 -26.5t37 -36.5t14.5 -39.5q0 -16 -6.5 -37.5t-15.5 -40t-22.5 -31t-25.5 -12.5q-18 0 -34.5 15.5t-34 34t-39 34t-48.5 15.5q-18 0 -34.5 -8.5t-37 -28t-45 -54 t-59.5 -90.5v-397q0 -49 6.5 -82t28 -53.5t62.5 -27.5q26 -4 64 -4q22 0 48 1v-53h-530z" />
<glyph unicode="s" horiz-adv-x="811" d="M90 694q0 55 22.5 100.5t62.5 78t94.5 51t119.5 18.5q145 0 264 -88v-217h-53q-23 127 -73 186.5t-136 59.5q-72 0 -117 -39t-45 -101q0 -59 37 -96q31 -31 79 -54.5t101.5 -48t106.5 -54t96 -72.5q37 -37 54.5 -81t17.5 -89q0 -59 -24.5 -108.5t-67.5 -85.5 t-101.5 -56.5t-128.5 -20.5q-72 0 -145.5 19.5t-136.5 56.5v254h53q12 -123 74.5 -196.5t163.5 -73.5q76 0 128 47t52 115q0 18 -7.5 45.5t-25.5 46.5q-37 37 -88 64.5t-106.5 53t-109.5 55.5t-97 73q-29 29 -46.5 68.5t-17.5 88.5z" />
<glyph unicode="t" horiz-adv-x="641" d="M23 848v47q197 55 272 227h51v-200h283v-74h-283v-633q0 -78 28.5 -108.5t108.5 -30.5q35 0 73 3t91 13v-63q-61 -23 -135 -37.5t-125 -14.5q-111 0 -156 52.5t-45 156.5v662h-163z" />
<glyph unicode="u" horiz-adv-x="1153" d="M14 868v54q78 2 130.5 3t86.5 3q37 4 60.5 5t42.5 5v-631q0 -102 50 -152.5t146 -50.5q139 0 271 119v484q0 43 -6.5 73.5t-24.5 50t-51 28.5t-86 9v54q66 0 116 2t87 4q39 4 68.5 6t56.5 4v-745q0 -43 9 -66t27.5 -32t47 -9t67.5 4v-53l-311 -57v178 q-78 -86 -170 -133.5t-180 -47.5q-53 0 -103.5 17.5t-88.5 54.5t-61.5 91.5t-23.5 127.5v457q0 74 -31.5 103.5t-128.5 39.5z" />
<glyph unicode="v" horiz-adv-x="1024" d="M25 868v54h424v-54q-129 -6 -130 -77q0 -16 4.5 -35t20.5 -56l225 -516l140 346q71 172 71 228q0 49 -32.5 77.5t-92.5 32.5v54h353v-54q-33 -4 -58.5 -15t-47 -34.5t-42 -60.5t-41.5 -92l-274 -691h-51l-338 779q-29 63 -54.5 86.5t-76.5 27.5z" />
<glyph unicode="w" d="M12 868v54h381v-54q-102 -6 -102 -82q0 -27 33 -106l198 -498l199 498l-21 59q-25 72 -55.5 97.5t-93.5 31.5v54h434v-54q-127 -8 -127 -77q0 -35 33 -121l186 -473l174 460q12 35 18.5 59.5t6.5 47.5q0 96 -115 104v54h312v-54q-49 -4 -82 -42t-66 -128l-272 -723h-54 l-249 633l-252 -633h-54l-315 779q-23 57 -47.5 80.5t-69.5 33.5z" />
<glyph unicode="x" horiz-adv-x="1067" d="M39 868v54h410v-54q-88 -2 -89 -47q0 -8 2.5 -15t9.5 -18.5t20.5 -30t37.5 -46.5l131 -158l109 123q29 33 48 67.5t19 55.5q0 61 -98 69v54h352v-54q-90 -4 -180 -108l-217 -250l272 -332q53 -66 90 -91.5t78 -33.5v-53h-440v53q100 12 100 64q0 23 -14 46t-57 77 l-127 155l-99 -110q-55 -63 -73.5 -93t-18.5 -55q0 -37 31 -58.5t86 -25.5v-53h-375v53q20 2 43 11.5t52.5 32t67.5 60.5t91 97l162 184l-273 330q-25 31 -43 49.5t-33.5 29.5t-33 15t-41.5 6z" />
<glyph unicode="y" horiz-adv-x="1024" d="M25 868v54h434v-54q-66 -4 -94.5 -20.5t-28.5 -50.5q0 -27 11 -62t46 -110l197 -437l129 338q37 96 53 151.5t16 80.5q0 49 -28.5 74.5t-95.5 35.5v54h337v-54q-33 -6 -56 -19t-43.5 -38t-40 -67t-44.5 -105l-287 -764q-41 -111 -110.5 -185.5t-169.5 -74.5 q-70 0 -115 31.5t-45 79.5q0 35 24.5 60.5t55.5 25.5q25 0 39 -11.5t29.5 -24t34 -23.5t49.5 -11q59 0 103 56.5t91 191.5l-336 737q-18 41 -34.5 67.5t-33 42t-37 22.5t-50.5 9z" />
<glyph unicode="z" horiz-adv-x="937" d="M43 0v47l606 821h-184q-70 0 -118 -6t-84 -24.5t-64.5 -51t-57.5 -84.5h-53v248h21q23 0 30.5 -4t19 -10t32 -10t65.5 -4h584v-50l-598 -819h215q74 0 128 13.5t94 43t70.5 74.5t57.5 111h49l-49 -295h-764z" />
<glyph unicode="{" horiz-adv-x="970" d="M281 487v45q113 16 175 83t62 143q0 33 -6 69.5t-16 77.5q-8 41 -15.5 81t-7.5 77q0 70 25.5 132t72.5 113.5t112 86.5t142 49v-37q-109 -25 -167 -84t-58 -145q0 -35 6 -77t17 -85q8 -43 14 -84t6 -76q0 -111 -73.5 -201t-209.5 -145q135 -55 209 -145.5t74 -200.5 q0 -35 -6 -76t-14 -84q-10 -41 -16.5 -83t-6.5 -79q0 -86 58.5 -145t166.5 -84v-37q-78 14 -142.5 49t-111.5 86t-72.5 113.5t-25.5 132.5q0 39 7 78t16 80q10 41 16 77.5t6 69.5q0 76 -62.5 142.5t-174.5 82.5z" />
<glyph unicode="|" horiz-adv-x="1044" d="M479 -512v2048h88v-2048h-88z" />
<glyph unicode="}" horiz-adv-x="970" d="M145 -387q109 25 167.5 84t58.5 145q0 37 -6.5 79t-14.5 83q-10 43 -16 84t-6 76q0 111 73.5 201t208.5 145q-135 55 -208.5 145t-73.5 201q0 35 6 76t16 84q8 43 14.5 85t6.5 77q0 86 -58.5 145t-167.5 84v37q78 -14 142.5 -49t111.5 -86.5t73 -113.5t26 -132 q0 -37 -6.5 -77t-16.5 -81q-8 -41 -15 -77.5t-7 -69.5q0 -76 62.5 -142.5t174.5 -83.5v-45q-113 -16 -175 -82.5t-62 -142.5q0 -33 7 -69.5t15 -77.5q10 -41 16.5 -80t6.5 -78q0 -70 -26 -132.5t-73 -113.5t-111.5 -86t-142.5 -49v37z" />
<glyph unicode="~" horiz-adv-x="1366" d="M141 389q4 156 76 230.5t189 74.5q61 0 135.5 -27.5t160.5 -62.5q84 -35 162 -64.5t133 -29.5q72 0 116 49t52 135h58q-6 -152 -76 -228.5t-189 -76.5q-70 0 -149.5 27.5t-157.5 62.5q-80 35 -152.5 62.5t-127.5 27.5q-139 0 -172 -180h-58z" />
<glyph unicode="&#xa1;" horiz-adv-x="555" d="M164 829q0 47 32.5 80t79.5 33t80 -33t33 -80t-32.5 -79.5t-80.5 -32.5q-47 0 -79.5 32.5t-32.5 79.5zM174 -434q0 10 2 36.5t4 43.5l80 889h55l66 -893q2 -29 2 -44.5v-29.5q0 -41 -19.5 -58.5t-68.5 -17.5h-35q-45 0 -65.5 16.5t-20.5 57.5z" />
<glyph unicode="&#xa2;" horiz-adv-x="960" d="M84 446q0 106 37 196.5t103.5 157t155.5 104.5t193 38h41l136 371h59l-139 -379q106 -18 162.5 -65.5t56.5 -114.5q0 -41 -21.5 -64.5t-56.5 -23.5q-39 0 -56.5 20.5t-29.5 50t-28.5 62t-53.5 59.5l-246 -672q88 -63 197 -63q143 0 268 127l41 -29q-66 -117 -165 -180.5 t-210 -63.5q-47 0 -98 11.5t-92 34.5l-139 -381h-58l148 407q-96 63 -150.5 165.5t-54.5 231.5zM244 532q0 -92 27.5 -170.5t80.5 -136.5l240 652q-29 6 -55 6q-135 0 -214 -95.5t-79 -255.5z" />
<glyph unicode="&#xa3;" horiz-adv-x="1449" d="M137 -311q0 57 49.5 112.5t135.5 96.5l100 348h-266l16 59h266l107 400q37 137 86 266t119.5 229t167 160.5t229.5 60.5q111 0 182.5 -40t71.5 -99q0 -33 -20.5 -56.5t-49.5 -23.5q-37 0 -64.5 22.5t-57 48t-67.5 48t-95 22.5q-35 0 -64 -14t-57 -43q-20 -20 -40 -53 t-43.5 -93.5t-54 -155.5t-69.5 -241l-121 -438h287l-21 -59h-282q-29 -90 -59.5 -170t-65.5 -146q45 16 78.5 22.5t70.5 6.5q86 0 150.5 -34t120 -76t104.5 -75.5t102 -33.5q39 0 69 23.5t30 56.5q0 23 -10.5 43t-22.5 40.5t-22.5 43t-10.5 49.5q0 37 21.5 61.5t56.5 24.5 q47 0 75.5 -38t28.5 -97q0 -39 -17 -95.5t-55 -108.5t-99.5 -90t-147.5 -38q-84 0 -141.5 38t-109.5 83t-108.5 83t-136.5 38q-35 0 -69 -9q-47 -111 -100.5 -173t-100.5 -62q-33 0 -54.5 21.5t-21.5 54.5z" />
<glyph unicode="&#xa4;" horiz-adv-x="1366" d="M205 256l129 129q-45 55 -70.5 122.5t-25.5 151.5q0 86 28.5 159t67.5 114l-129 129l74 76l129 -129q51 43 118.5 70.5t157.5 27.5q84 0 156.5 -27.5t120.5 -68.5l126 127l74 -76l-127 -127q45 -53 70.5 -125t25.5 -150t-24.5 -149.5t-71.5 -126.5l127 -127l-74 -74 l-126 127q-57 -45 -128 -70.5t-149 -25.5q-86 0 -156.5 27.5t-119.5 70.5l-129 -129zM342 659q0 -72 26.5 -133t72.5 -108t107.5 -74t133.5 -27q70 0 132.5 27t109.5 74t73.5 108.5t26.5 132.5q0 70 -26.5 132.5t-73.5 108.5t-109.5 72.5t-132.5 26.5q-72 0 -133.5 -26.5 t-107.5 -72.5t-72.5 -108.5t-26.5 -132.5z" />
<glyph unicode="&#xa5;" d="M74 1337v60h610v-58q-92 4 -130 -14t-38 -70q0 -53 72 -163l223 -340h8l211 313q35 51 43 88t8 53q0 113 -157 131v60h497v-60q-59 -2 -112.5 -42t-122.5 -138l-303 -434h444v-59h-485v-248h485v-60h-485v-125q0 -49 10 -82.5t33.5 -54t63.5 -28t100 -7.5v-59h-603v59 q117 -4 161 36t44 138v123h-495v60h495v248h-495v59h462l-290 436q-37 53 -64.5 87t-56.5 53.5t-59.5 27.5t-73.5 10z" />
<glyph unicode="&#xa6;" horiz-adv-x="1044" d="M479 -358v716h88v-716h-88zM479 666v716h88v-716h-88z" />
<glyph unicode="&#xa7;" horiz-adv-x="831" d="M72 940q0 104 31.5 192.5t88 153t133 100t167.5 35.5q100 0 165.5 -37.5t65.5 -97.5q0 -33 -20.5 -52.5t-55.5 -19.5q-37 0 -63.5 20.5t-53 44.5t-59.5 44t-78 20q-53 0 -88 -32.5t-35 -81.5q0 -20 4.5 -41t15.5 -47.5t30.5 -62.5t50.5 -85l172 -284q63 -109 105 -197 t65.5 -165t33 -144.5t9.5 -132.5q0 -104 -30 -190.5t-84 -146t-132 -92t-172 -32.5q-100 0 -169 39t-69 96q0 35 26 57.5t64 22.5q35 0 64 -21.5t57.5 -48t61.5 -48t76 -21.5q47 0 77.5 33.5t30.5 84.5q0 49 -26.5 111.5t-92.5 161.5l-82 121q-92 137 -148 244.5t-87 194.5 t-40 160.5t-9 143.5zM141 973q0 -145 55.5 -303t163.5 -322l78 -119q43 -68 76 -124t54.5 -108t33.5 -104.5t16 -107.5h5q35 61 50 125.5t15 144.5q0 100 -40 239.5t-144 319.5l-139 240q-47 82 -77 137.5t-46.5 96t-22.5 72.5t-6 67h-4q-33 -51 -50.5 -117t-17.5 -137z" />
<glyph unicode="&#xa8;" horiz-adv-x="681" d="M23 1221q0 41 29.5 70.5t70.5 29.5t70.5 -29.5t29.5 -70.5t-29.5 -71t-70.5 -30t-70.5 30t-29.5 71zM457 1221q0 41 29.5 70.5t70.5 29.5t70.5 -29.5t29.5 -70.5t-29.5 -71t-70.5 -30t-70.5 30t-29.5 71z" />
<glyph unicode="&#xa9;" horiz-adv-x="1579" d="M82 688q0 147 55.5 276.5t151.5 225.5t225 151.5t277 55.5q147 0 276 -55.5t225.5 -151.5t151.5 -225.5t55 -276.5t-55 -276t-151.5 -225.5t-225.5 -151.5t-276 -55t-276.5 55t-225.5 151.5t-151.5 225.5t-55.5 276zM143 688q0 -135 51.5 -253t138.5 -205t204.5 -138 t253.5 -51q135 0 252.5 51t204.5 138t138.5 205t51.5 253t-51.5 253t-138.5 205t-204.5 138t-252.5 51t-253 -51t-205 -138t-138.5 -205t-51.5 -253zM330 682q0 98 38 183t104.5 146.5t157.5 97.5t197 36q45 0 80 -7.5t61.5 -15.5t46 -15t36.5 -7q16 0 27.5 9t21.5 36h39 l20 -281h-39q-72 236 -303 236q-147 0 -233 -105.5t-86 -283.5q0 -109 24.5 -187t68.5 -128t104.5 -74.5t131.5 -24.5q197 0 312 164l39 -21q-139 -203 -385 -202q-98 0 -183.5 33.5t-147 94t-97 141.5t-35.5 175z" />
<glyph unicode="&#xaa;" horiz-adv-x="618" d="M47 973q0 109 170 151l180 60v90q0 53 -32.5 80.5t-92.5 27.5q-43 0 -77.5 -19.5t-34.5 -45.5q0 -23 17.5 -43.5t17.5 -28.5q0 -6 -12.5 -14t-27 -15.5t-28.5 -11.5t-16 -4q-14 0 -27.5 24.5t-13.5 57.5q0 59 69.5 99t173.5 40q98 0 141.5 -35.5t43.5 -91.5v-264 q0 -66 9 -84t28 -18q25 0 47 14l14 -31q-66 -68 -113 -67q-80 0 -86 98q-94 -98 -194 -98q-68 0 -112 35.5t-44 93.5zM156 1001q0 -37 28.5 -60t71.5 -23q78 0 141 67v166l-157 -61q-37 -12 -60.5 -36t-23.5 -53z" />
<glyph unicode="&#xab;" horiz-adv-x="724" d="M92 512l299 463h37l-178 -463l178 -459h-37zM397 512l207 356h35l-109 -356l109 -367h-35z" />
<glyph unicode="&#xac;" horiz-adv-x="1366" d="M143 723v108h1080v-575h-109v467h-971z" />
<glyph unicode="&#xad;" horiz-adv-x="768" d="M78 389v148h614v-148h-614z" />
<glyph unicode="&#xae;" horiz-adv-x="1579" d="M82 688q0 147 55.5 276.5t151.5 225.5t225 151.5t277 55.5q147 0 276 -55.5t225.5 -151.5t151.5 -225.5t55 -276.5t-55 -276t-151.5 -225.5t-225.5 -151.5t-276 -55t-276.5 55t-225.5 151.5t-151.5 225.5t-55.5 276zM143 688q0 -135 51.5 -253t138.5 -205t204.5 -138 t253.5 -51q135 0 252.5 51t204.5 138t138.5 205t51.5 253t-51.5 253t-138.5 205t-204.5 138t-252.5 51t-253 -51t-205 -138t-138.5 -205t-51.5 -253zM385 258v33q66 0 85 24.5t19 73.5v604q0 53 -19 73.5t-73 20.5v37h385q135 0 217 -61.5t82 -163.5q0 -166 -223 -221 l209 -299q35 -49 59.5 -66.5t61.5 -21.5v-33h-184l-295 406h-74v-285q0 -53 25.5 -70.5t91.5 -17.5v-33h-367zM635 707h29q123 0 189.5 48t66.5 134q0 84 -57.5 137t-145.5 53q-23 0 -39 -3t-43 -11v-358z" />
<glyph unicode="&#xaf;" horiz-adv-x="681" d="M-27 1161v121h736v-121h-736z" />
<glyph unicode="&#xb0;" horiz-adv-x="759" d="M57 1075q0 68 26 126.5t69 101.5t101 68.5t126 25.5t126 -25.5t101 -68.5t68.5 -101.5t25.5 -126.5t-25.5 -126t-68.5 -101t-101.5 -68.5t-125.5 -25.5q-68 0 -126 25.5t-101 68.5t-69 101.5t-26 125.5zM158 1075q0 -47 17.5 -87t47 -69.5t69.5 -47t87 -17.5 q45 0 86 17.5t70.5 47t47 69.5t17.5 87q0 45 -17.5 86t-47 71t-70.5 47t-86 17q-47 0 -87 -17t-69.5 -47t-47 -71t-17.5 -86z" />
<glyph unicode="&#xb1;" horiz-adv-x="1366" d="M143 0v109h1080v-109h-1080zM143 807v108h486v486h108v-486h486v-108h-486v-485h-108v485h-486z" />
<glyph unicode="&#xb2;" horiz-adv-x="681" d="M61 686v47l209 180q186 160 187 279q0 53 -46 88t-118 35q-49 0 -87 -16.5t-91 -59.5l-39 33q63 66 127.5 95.5t146.5 29.5q49 0 92 -14.5t74 -39t49.5 -58.5t18.5 -73q0 -33 -13.5 -65.5t-43 -70.5t-77 -82t-112.5 -99l-143 -115v-4h258q47 0 65.5 15.5t40.5 76.5h66 l-72 -182h-492z" />
<glyph unicode="&#xb3;" horiz-adv-x="681" d="M66 737q0 16 18 31.5t39 15.5q16 0 34.5 -9t40 -20.5t48 -20.5t59.5 -9q70 0 116 49t46 125q0 127 -174 127q-27 0 -66 -3t-80 -7l9 47q123 6 193.5 50t70.5 116q0 41 -38 69.5t-97 28.5q-49 0 -92 -23.5t-66 -46.5l-37 35q53 57 107.5 81t132.5 24q92 0 154.5 -44 t62.5 -110q0 -86 -117 -139v-4q72 -10 117 -58.5t45 -111.5q0 -55 -25.5 -102.5t-70.5 -81t-107.5 -53t-136.5 -19.5q-76 0 -131 18.5t-55 44.5z" />
<glyph unicode="&#xb4;" horiz-adv-x="681" d="M190 1071l89 234q8 20 16 34.5t20.5 21.5t28.5 10t43 3h49q31 0 41 -6t10 -27q0 -6 -6 -18t-16 -23l-203 -229h-72z" />
<glyph unicode="&#xb6;" horiz-adv-x="897" d="M-4 1020q0 76 25.5 143.5t80 119.5t136 83t196.5 31h467v-37q-45 -2 -71.5 -8t-41 -24.5t-18.5 -52.5t-4 -89v-1585h-59v1745h-185v-1745h-59v1071q-223 -4 -345 84t-122 264z" />
<glyph unicode="&#xb7;" horiz-adv-x="555" d="M166 553q0 47 33 80t80 33t79.5 -33t32.5 -80t-32.5 -80t-79.5 -33t-80 33t-33 80z" />
<glyph unicode="&#xb8;" horiz-adv-x="681" d="M180 -303q72 -2 114 19.5t42 64.5q0 35 -26.5 53.5t-73.5 22.5l86 155h51l-39 -78q55 -10 87 -43.5t32 -80.5q0 -78 -65.5 -124t-207.5 -42v53z" />
<glyph unicode="&#xb9;" horiz-adv-x="681" d="M162 1257v43q111 31 188 97h58v-586q0 -27 3 -43t15 -24.5t34.5 -10.5t61.5 0v-47h-346v47q39 -2 60.5 0t33 10.5t14.5 20.5t3 33v389q0 41 -13.5 55t-56.5 14z" />
<glyph unicode="&#xba;" horiz-adv-x="704" d="M55 1133q0 61 22.5 114t62.5 91t95.5 60.5t118.5 22.5t118.5 -21.5t95.5 -60.5t62.5 -90t22.5 -112t-22.5 -114.5t-62.5 -93.5t-94 -62.5t-116 -22.5q-66 0 -121 21.5t-96 60.5t-63.5 92.5t-22.5 114.5zM160 1188q0 -31 7 -69t20.5 -72.5t31 -66.5t35.5 -50 q51 -51 125 -51t122 52t48 132q0 31 -5 68.5t-16.5 76.5t-30 74t-42.5 59q-45 45 -115 45q-84 0 -132 -53t-48 -145z" />
<glyph unicode="&#xbb;" horiz-adv-x="724" d="M86 145l109 367l-109 356h35l207 -356l-207 -367h-35zM297 53l178 459l-178 463h37l299 -463l-299 -459h-37z" />
<glyph unicode="&#xbc;" horiz-adv-x="1622" d="M162 1257v43q111 31 188 97h58v-586q0 -27 3 -43t15 -24.5t34.5 -10.5t61.5 0v-47h-346v47q39 -2 60.5 0t33 10.5t14.5 20.5t3 33v389q0 41 -13.5 55t-56.5 14zM233 -86l920 1507h86l-917 -1507h-89zM813 166v67l393 476h80v-463h121v-80h-121v-176h-119v176h-354z M895 246h272v323z" />
<glyph unicode="&#xbd;" horiz-adv-x="1622" d="M162 1257v43q111 31 188 97h58v-586q0 -27 3 -43t15 -24.5t34.5 -10.5t61.5 0v-47h-346v47q39 -2 60.5 0t33 10.5t14.5 20.5t3 33v389q0 41 -13.5 55t-56.5 14zM233 -86l920 1507h86l-917 -1507h-89zM909 0v47l209 180q186 160 187 279q0 53 -46.5 88t-117.5 35 q-49 0 -87 -16.5t-91 -59.5l-39 33q63 66 127.5 95.5t146.5 29.5q49 0 92 -14.5t74 -39t49.5 -58.5t18.5 -73q0 -33 -13.5 -65.5t-43 -70.5t-77 -82t-112.5 -99l-144 -115v-4h258q47 0 65.5 15.5t41.5 76.5h66l-72 -182h-492z" />
<glyph unicode="&#xbe;" horiz-adv-x="1622" d="M90 737q0 16 18.5 31.5t38.5 15.5q16 0 35 -9t40.5 -20.5t48 -20.5t59.5 -9q70 0 116 49t46 125q0 127 -175 127q-27 0 -65.5 -3t-79.5 -7l8 47q123 6 193.5 50t70.5 116q0 41 -37.5 69.5t-97.5 28.5q-49 0 -92 -23.5t-65 -46.5l-37 35q53 57 107 81t132 24 q92 0 154.5 -44t62.5 -110q0 -86 -116 -139v-4q72 -10 116.5 -58.5t44.5 -111.5q0 -55 -25.5 -102.5t-70.5 -81t-107.5 -53t-136.5 -19.5q-76 0 -131 18.5t-55 44.5zM233 -86l920 1507h86l-917 -1507h-89zM813 166v67l393 476h80v-463h121v-80h-121v-176h-119v176h-354z M895 246h272v323z" />
<glyph unicode="&#xbf;" horiz-adv-x="874" d="M106 55q0 104 82 187q35 35 75 54t79 34.5t74 31t63 44.5q20 20 32.5 63t16.5 96h58q-6 -29 -3 -68.5t9 -81.5t12 -80t6 -61t-28.5 -37t-72.5 -29t-95.5 -32.5t-95.5 -44.5t-72.5 -65.5t-28.5 -96.5q0 -61 22.5 -119.5t59.5 -104.5t84 -74.5t96 -28.5q37 0 70 7t60.5 16 t48 16.5t32.5 7.5q51 0 51 -66q0 -59 -50 -95t-136 -36q-53 0 -106.5 31t-102.5 81t-93 111.5t-77 124t-51.5 119.5t-18.5 96zM436 829q0 47 33 80t80 33t80 -33t33 -80t-33 -79.5t-80 -32.5t-80 32.5t-33 79.5z" />
<glyph unicode="&#xc0;" d="M16 0v59q29 2 56.5 15.5t54.5 46.5t55.5 86t61.5 133l395 985l-31 72h191l475 -1127q25 -59 47 -97t46 -60.5t50.5 -34.5t59.5 -19v-59h-545v59q88 4 129 30t41 83q0 16 -2 32.5t-8.5 38t-18.5 51.5t-31 75l-79 184h-549l-58 -152q-29 -74 -40 -114.5t-11 -73.5 q0 -70 46 -110t132 -44v-59h-467zM446 641h480l-252 602zM601 1783q0 20 10 26.5t41 6.5h49q51 0 71.5 -13t36.5 -56l89 -234h-72l-203 229q-10 10 -16 22.5t-6 18.5z" />
<glyph unicode="&#xc1;" d="M16 0v59q29 2 56.5 15.5t54.5 46.5t55.5 86t61.5 133l395 985l-31 72h191l475 -1127q25 -59 47 -97t46 -60.5t50.5 -34.5t59.5 -19v-59h-545v59q88 4 129 30t41 83q0 16 -2 32.5t-8.5 38t-18.5 51.5t-31 75l-79 184h-549l-58 -152q-29 -74 -40 -114.5t-11 -73.5 q0 -70 46 -110t132 -44v-59h-467zM446 641h480l-252 602zM596 1513l89 234q8 20 16 34.5t20.5 21.5t28.5 10t43 3h49q31 0 41 -6t10 -27q0 -6 -6 -18t-16 -23l-203 -229h-72z" />
<glyph unicode="&#xc2;" d="M16 0v59q29 2 56.5 15.5t54.5 46.5t55.5 86t61.5 133l395 985l-31 72h191l475 -1127q25 -59 47 -97t46 -60.5t50.5 -34.5t59.5 -19v-59h-545v59q88 4 129 30t41 83q0 16 -2 32.5t-8.5 38t-18.5 51.5t-31 75l-79 184h-549l-58 -152q-29 -74 -40 -114.5t-11 -73.5 q0 -70 46 -110t132 -44v-59h-467zM446 641h480l-252 602zM523 1511l174 303h186l176 -303h-94l-195 191l-157 -191h-90z" />
<glyph unicode="&#xc3;" d="M16 0v59q29 2 56.5 15.5t54.5 46.5t55.5 86t61.5 133l395 985l-31 72h191l475 -1127q25 -59 47 -97t46 -60.5t50.5 -34.5t59.5 -19v-59h-545v59q88 4 129 30t41 83q0 16 -2 32.5t-8.5 38t-18.5 51.5t-31 75l-79 184h-549l-58 -152q-29 -74 -40 -114.5t-11 -73.5 q0 -70 46 -110t132 -44v-59h-467zM424 1562q14 92 64.5 160t126.5 68q37 0 76 -16.5t76.5 -36t72.5 -36t62 -16.5q35 0 61.5 24.5t50.5 82.5l56 -31q-10 -59 -33 -102t-50.5 -71t-56 -40t-51.5 -12q-35 0 -74 16t-77.5 36.5t-72.5 37t-59 16.5q-37 0 -61.5 -22.5 t-52.5 -81.5zM446 641h480l-252 602z" />
<glyph unicode="&#xc4;" d="M16 0v59q29 2 56.5 15.5t54.5 46.5t55.5 86t61.5 133l395 985l-31 72h191l475 -1127q25 -59 47 -97t46 -60.5t50.5 -34.5t59.5 -19v-59h-545v59q88 4 129 30t41 83q0 16 -2 32.5t-8.5 38t-18.5 51.5t-31 75l-79 184h-549l-58 -152q-29 -74 -40 -114.5t-11 -73.5 q0 -70 46 -110t132 -44v-59h-467zM429 1663q0 41 29.5 70.5t70.5 29.5t70.5 -29.5t29.5 -70.5t-29.5 -71t-70.5 -30t-70.5 30t-29.5 71zM446 641h480l-252 602zM863 1663q0 41 29.5 70.5t70.5 29.5t70.5 -29.5t29.5 -70.5t-29.5 -71t-70.5 -30t-70.5 30t-29.5 71z" />
<glyph unicode="&#xc5;" d="M16 0v59q29 2 56.5 15.5t54.5 46.5t55.5 86t61.5 133l395 985l-31 72h191l475 -1127q25 -59 47 -97t46 -60.5t50.5 -34.5t59.5 -19v-59h-545v59q88 4 129 30t41 83q0 16 -2 32.5t-8.5 38t-18.5 51.5t-31 75l-79 184h-549l-58 -152q-29 -74 -40 -114.5t-11 -73.5 q0 -70 46 -110t132 -44v-59h-467zM446 641h480l-252 602zM572 1689q0 37 14.5 69t38 55.5t55 36.5t68.5 13q72 0 123 -51t51 -123q0 -37 -13.5 -68.5t-37 -55t-55 -38t-68.5 -14.5t-68.5 14.5t-55 38t-38 55t-14.5 68.5zM633 1689q0 -47 33 -80.5t80 -33.5t81 33.5t34 80.5 t-34 80t-81 33t-80 -33t-33 -80z" />
<glyph unicode="&#xc6;" horiz-adv-x="2027" d="M-43 0v59q33 6 59.5 20.5t52 43.5t50 74t55.5 112l350 793q12 29 24.5 64.5t12.5 64.5q0 59 -43 81.5t-104 24.5v60h1200l102 -303h-63q-63 78 -113.5 126t-102 73.5t-106.5 34.5t-127 9h-356l184 -581h352q84 0 120 32.5t36 85.5q0 20 -6 62.5t-12 62.5h61l172 -512h-59 q-39 63 -73 103.5t-72 64t-87 32.5t-118 9h-295l133 -432q20 -68 35.5 -108.5t32 -62t36 -28t47.5 -6.5h209q76 0 129 22.5t93 62.5t72 94.5t65 115.5h67l-67 -354h-1055v59q96 -4 137 50.5t12 140.5l-143 446h-446q-86 -193 -127 -318.5t-41 -174.5q0 -66 45 -103t129 -41 v-59h-457zM434 756h402l-170 512q-23 -45 -54.5 -111.5t-64.5 -139.5t-62.5 -142.5t-50.5 -118.5z" />
<glyph unicode="&#xc7;" horiz-adv-x="1579" d="M123 686q0 178 70.5 315.5t184.5 230.5t255 141t282 48q121 0 250 -24.5t230 -69.5l53 -309h-68q-90 172 -204.5 253t-276.5 81q-127 0 -220 -41t-153 -101q-94 -94 -138 -223t-44 -276q0 -166 51 -295t156 -234q66 -66 159 -101.5t205 -35.5q188 0 306 87t174 269h63 l-6 -299q-51 -29 -117.5 -52t-140.5 -39.5t-151.5 -26t-151.5 -9.5h-31.5t-32.5 2l-22 -43q55 -10 87 -43.5t32 -80.5q0 -78 -65.5 -124t-207.5 -42v53q72 -2 114 19.5t42 64.5q0 35 -26.5 53.5t-73.5 22.5l69 127q-145 16 -266 74.5t-207 150.5t-133 214t-47 263z" />
<glyph unicode="&#xc8;" horiz-adv-x="1343" d="M49 0v59q63 -2 105.5 6.5t67 30t34.5 57t10 89.5v921q0 100 -45 138t-172 36v60h1145l12 -301h-59q-35 117 -114 179t-234 62h-342v-581h276q125 0 201 50t80 171h59v-500h-59q-8 55 -26.5 97t-53.5 69t-87 40t-128 13h-262v-426q0 -72 7 -113.5t34.5 -63t84 -28 t154.5 -6.5q106 0 186.5 18.5t139.5 53.5t102 85t78 114h66l-84 -330h-1176zM527 1783q0 20 10 26.5t41 6.5h49q51 0 71.5 -13t36.5 -56l89 -234h-72l-203 229q-10 10 -16 22.5t-6 18.5z" />
<glyph unicode="&#xc9;" horiz-adv-x="1343" d="M49 0v59q63 -2 105.5 6.5t67 30t34.5 57t10 89.5v921q0 100 -45 138t-172 36v60h1145l12 -301h-59q-35 117 -114 179t-234 62h-342v-581h276q125 0 201 50t80 171h59v-500h-59q-8 55 -26.5 97t-53.5 69t-87 40t-128 13h-262v-426q0 -72 7 -113.5t34.5 -63t84 -28 t154.5 -6.5q106 0 186.5 18.5t139.5 53.5t102 85t78 114h66l-84 -330h-1176zM522 1513l89 234q8 20 16 34.5t20.5 21.5t28.5 10t43 3h49q31 0 41 -6t10 -27q0 -6 -6 -18t-16 -23l-203 -229h-72z" />
<glyph unicode="&#xca;" horiz-adv-x="1343" d="M49 0v59q63 -2 105.5 6.5t67 30t34.5 57t10 89.5v921q0 100 -45 138t-172 36v60h1145l12 -301h-59q-35 117 -114 179t-234 62h-342v-581h276q125 0 201 50t80 171h59v-500h-59q-8 55 -26.5 97t-53.5 69t-87 40t-128 13h-262v-426q0 -72 7 -113.5t34.5 -63t84 -28 t154.5 -6.5q106 0 186.5 18.5t139.5 53.5t102 85t78 114h66l-84 -330h-1176zM404 1511l174 303h186l176 -303h-94l-195 191l-157 -191h-90z" />
<glyph unicode="&#xcb;" horiz-adv-x="1343" d="M49 0v59q63 -2 105.5 6.5t67 30t34.5 57t10 89.5v921q0 100 -45 138t-172 36v60h1145l12 -301h-59q-35 117 -114 179t-234 62h-342v-581h276q125 0 201 50t80 171h59v-500h-59q-8 55 -26.5 97t-53.5 69t-87 40t-128 13h-262v-426q0 -72 7 -113.5t34.5 -63t84 -28 t154.5 -6.5q106 0 186.5 18.5t139.5 53.5t102 85t78 114h66l-84 -330h-1176zM385 1663q0 41 29.5 70.5t70.5 29.5t70.5 -29.5t29.5 -70.5t-29.5 -71t-70.5 -30t-70.5 30t-29.5 71zM819 1663q0 41 29.5 70.5t70.5 29.5t70.5 -29.5t29.5 -70.5t-29.5 -71t-70.5 -30t-70.5 30 t-29.5 71z" />
<glyph unicode="&#xcc;" horiz-adv-x="724" d="M45 0v59q66 -2 109 6.5t68.5 28t35.5 53t10 82.5v942q0 45 -8 77t-32.5 52.5t-68.5 29.5t-114 7v60h635v-60q-121 4 -171 -31.5t-50 -134.5v-935q0 -49 10 -84t34.5 -56.5t67.5 -31t109 -5.5v-59h-635zM218 1783q0 20 10 26.5t41 6.5h49q51 0 71.5 -13t36.5 -56l89 -234 h-72l-203 229q-10 10 -16 22.5t-6 18.5z" />
<glyph unicode="&#xcd;" horiz-adv-x="724" d="M45 0v59q66 -2 109 6.5t68.5 28t35.5 53t10 82.5v942q0 45 -8 77t-32.5 52.5t-68.5 29.5t-114 7v60h635v-60q-121 4 -171 -31.5t-50 -134.5v-935q0 -49 10 -84t34.5 -56.5t67.5 -31t109 -5.5v-59h-635zM213 1513l89 234q8 20 16 34.5t20.5 21.5t28.5 10t43 3h49 q31 0 41 -6t10 -27q0 -6 -6 -18t-16 -23l-203 -229h-72z" />
<glyph unicode="&#xce;" horiz-adv-x="724" d="M45 0v59q66 -2 109 6.5t68.5 28t35.5 53t10 82.5v942q0 45 -8 77t-32.5 52.5t-68.5 29.5t-114 7v60h635v-60q-121 4 -171 -31.5t-50 -134.5v-935q0 -49 10 -84t34.5 -56.5t67.5 -31t109 -5.5v-59h-635zM95 1511l174 303h186l176 -303h-94l-195 191l-157 -191h-90z" />
<glyph unicode="&#xcf;" horiz-adv-x="724" d="M45 0v59q66 -2 109 6.5t68.5 28t35.5 53t10 82.5v942q0 45 -8 77t-32.5 52.5t-68.5 29.5t-114 7v60h635v-60q-121 4 -171 -31.5t-50 -134.5v-935q0 -49 10 -84t34.5 -56.5t67.5 -31t109 -5.5v-59h-635zM46 1663q0 41 29.5 70.5t70.5 29.5t70.5 -29.5t29.5 -70.5 t-29.5 -71t-70.5 -30t-70.5 30t-29.5 71zM480 1663q0 41 29.5 70.5t70.5 29.5t70.5 -29.5t29.5 -70.5t-29.5 -71t-70.5 -30t-70.5 30t-29.5 71z" />
<glyph unicode="&#xd0;" horiz-adv-x="1728" d="M55 0v59q74 -2 119 7.5t69.5 32t33 57t8.5 84.5v430h-226v59h226v426q0 47 -8.5 83t-33 58.5t-69.5 32.5t-119 8v60h779q190 0 334.5 -56.5t242.5 -150.5t147.5 -217t49.5 -256q0 -92 -18.5 -170t-48.5 -143.5t-68.5 -118t-79.5 -92.5q-45 -45 -99.5 -81t-129 -60.5 t-174 -38t-230.5 -13.5h-705zM475 279q0 -117 60.5 -168.5t218.5 -51.5q145 0 268 33t211 121q47 47 77.5 102.5t49 113.5t26 117.5t7.5 112.5q0 147 -44 272.5t-137 217.5q-88 88 -213 138t-299 50h-225v-608h428v-59h-428v-391z" />
<glyph unicode="&#xd1;" horiz-adv-x="1728" d="M18 1337v60h304l1069 -1100v793q0 129 -62.5 187t-185.5 60v60h547v-60q-68 -4 -111 -25.5t-67.5 -61.5t-34 -98t-9.5 -134v-789q0 -27 5.5 -61.5t10.5 -70.5t10 -66.5t5 -48.5h-108q-10 18 -29 43.5t-41.5 53t-46 54.5t-43.5 47l-858 893v-786q0 -113 65.5 -167 t186.5 -61v-59h-574v59q113 -8 178.5 55.5t65.5 172.5v860l-80 82q-31 33 -54.5 52t-45 31.5t-45 17.5t-52.5 7zM542 1562q14 92 64.5 160t126.5 68q37 0 76 -16.5t76.5 -36t72.5 -36t62 -16.5q35 0 61.5 24.5t50.5 82.5l56 -31q-10 -59 -33 -102t-50.5 -71t-56 -40 t-51.5 -12q-35 0 -74 16t-77.5 36.5t-72.5 37t-59 16.5q-37 0 -61.5 -22.5t-52.5 -81.5z" />
<glyph unicode="&#xd2;" horiz-adv-x="1665" d="M121 694q0 160 55 293t151.5 229.5t227.5 150.5t283 54q174 0 306 -63.5t221 -165.5t134 -232.5t45 -263.5q0 -115 -40 -241.5t-126 -233t-222 -176.5t-329 -70q-141 0 -270 49.5t-225 141.5t-153.5 225t-57.5 303zM336 780q0 -139 35 -272t100.5 -235.5t162.5 -165 t220 -62.5q94 0 180 35t151.5 105.5t104.5 176t39 248.5q0 158 -37 293t-106.5 235.5t-166.5 157t-216 56.5q-76 0 -158 -31t-150.5 -98.5t-113.5 -176t-45 -266.5zM687 1783q0 20 10 26.5t41 6.5h49q51 0 71.5 -13t36.5 -56l89 -234h-72l-203 229q-10 10 -16 22.5t-6 18.5z " />
<glyph unicode="&#xd3;" horiz-adv-x="1665" d="M121 694q0 160 55 293t151.5 229.5t227.5 150.5t283 54q174 0 306 -63.5t221 -165.5t134 -232.5t45 -263.5q0 -115 -40 -241.5t-126 -233t-222 -176.5t-329 -70q-141 0 -270 49.5t-225 141.5t-153.5 225t-57.5 303zM336 780q0 -139 35 -272t100.5 -235.5t162.5 -165 t220 -62.5q94 0 180 35t151.5 105.5t104.5 176t39 248.5q0 158 -37 293t-106.5 235.5t-166.5 157t-216 56.5q-76 0 -158 -31t-150.5 -98.5t-113.5 -176t-45 -266.5zM682 1513l89 234q8 20 16 34.5t20.5 21.5t28.5 10t43 3h49q31 0 41 -6t10 -27q0 -6 -6 -18t-16 -23 l-203 -229h-72z" />
<glyph unicode="&#xd4;" horiz-adv-x="1665" d="M121 694q0 160 55 293t151.5 229.5t227.5 150.5t283 54q174 0 306 -63.5t221 -165.5t134 -232.5t45 -263.5q0 -115 -40 -241.5t-126 -233t-222 -176.5t-329 -70q-141 0 -270 49.5t-225 141.5t-153.5 225t-57.5 303zM336 780q0 -139 35 -272t100.5 -235.5t162.5 -165 t220 -62.5q94 0 180 35t151.5 105.5t104.5 176t39 248.5q0 158 -37 293t-106.5 235.5t-166.5 157t-216 56.5q-76 0 -158 -31t-150.5 -98.5t-113.5 -176t-45 -266.5zM564 1511l174 303h186l176 -303h-94l-195 191l-157 -191h-90z" />
<glyph unicode="&#xd5;" horiz-adv-x="1665" d="M121 694q0 160 55 293t151.5 229.5t227.5 150.5t283 54q174 0 306 -63.5t221 -165.5t134 -232.5t45 -263.5q0 -115 -40 -241.5t-126 -233t-222 -176.5t-329 -70q-141 0 -270 49.5t-225 141.5t-153.5 225t-57.5 303zM336 780q0 -139 35 -272t100.5 -235.5t162.5 -165 t220 -62.5q94 0 180 35t151.5 105.5t104.5 176t39 248.5q0 158 -37 293t-106.5 235.5t-166.5 157t-216 56.5q-76 0 -158 -31t-150.5 -98.5t-113.5 -176t-45 -266.5zM510 1562q14 92 64.5 160t126.5 68q37 0 76 -16.5t76.5 -36t72.5 -36t62 -16.5q35 0 61.5 24.5t50.5 82.5 l56 -31q-10 -59 -33 -102t-50.5 -71t-56 -40t-51.5 -12q-35 0 -74 16t-77.5 36.5t-72.5 37t-59 16.5q-37 0 -61.5 -22.5t-52.5 -81.5z" />
<glyph unicode="&#xd6;" horiz-adv-x="1665" d="M121 694q0 160 55 293t151.5 229.5t227.5 150.5t283 54q174 0 306 -63.5t221 -165.5t134 -232.5t45 -263.5q0 -115 -40 -241.5t-126 -233t-222 -176.5t-329 -70q-141 0 -270 49.5t-225 141.5t-153.5 225t-57.5 303zM336 780q0 -139 35 -272t100.5 -235.5t162.5 -165 t220 -62.5q94 0 180 35t151.5 105.5t104.5 176t39 248.5q0 158 -37 293t-106.5 235.5t-166.5 157t-216 56.5q-76 0 -158 -31t-150.5 -98.5t-113.5 -176t-45 -266.5zM515 1663q0 41 29.5 70.5t70.5 29.5t70.5 -29.5t29.5 -70.5t-29.5 -71t-70.5 -30t-70.5 30t-29.5 71z M949 1663q0 41 29.5 70.5t70.5 29.5t70.5 -29.5t29.5 -70.5t-29.5 -71t-70.5 -30t-70.5 30t-29.5 71z" />
<glyph unicode="&#xd7;" horiz-adv-x="1368" d="M195 125l413 414l-413 413l75 76l414 -414l416 416l76 -76l-416 -415l416 -416l-76 -76l-416 416l-414 -414z" />
<glyph unicode="&#xd8;" horiz-adv-x="1665" d="M121 694q0 160 55 293t151.5 229.5t227.5 150.5t283 54q137 0 245.5 -40t210.5 -119l150 168l47 -41l-152 -170q119 -127 162 -264.5t43 -258.5q0 -115 -40 -241.5t-126 -233t-222 -176.5t-329 -70q-82 0 -151.5 14.5t-128 38t-103.5 51t-75 54.5l-146 -162l-45 39 l146 164q-96 98 -149.5 224t-53.5 296zM336 780q0 -135 30.5 -256t82.5 -211l737 826q-70 100 -166 156.5t-217 56.5q-76 0 -158 -31t-150.5 -98.5t-113.5 -176t-45 -266.5zM479 258q78 -106 169 -159.5t206 -53.5q94 0 180 35t151.5 105.5t104.5 176t39 248.5 q0 74 -9 143.5t-24.5 132t-35 113t-41.5 84.5z" />
<glyph unicode="&#xd9;" horiz-adv-x="1642" d="M23 1337v60h632v-60q-74 2 -118.5 -7t-70.5 -29.5t-34 -52t-8 -72.5v-713q0 -182 111.5 -291t322.5 -109q127 0 210 37t130 84q135 135 135 408v471q0 68 -10 119t-35.5 84.5t-72 52t-117.5 18.5v60h518v-60q-55 -6 -94 -18t-65.5 -39t-39 -74t-12.5 -123v-518 q0 -299 -147.5 -444.5t-438.5 -145.5q-152 0 -262.5 37t-182 100.5t-106.5 146.5t-35 175v711q0 47 -5 84t-26.5 61.5t-63.5 36.5t-115 10zM676 1783q0 20 10 26.5t41 6.5h49q51 0 71.5 -13t36.5 -56l89 -234h-72l-203 229q-10 10 -16 22.5t-6 18.5z" />
<glyph unicode="&#xda;" horiz-adv-x="1642" d="M23 1337v60h632v-60q-74 2 -118.5 -7t-70.5 -29.5t-34 -52t-8 -72.5v-713q0 -182 111.5 -291t322.5 -109q127 0 210 37t130 84q135 135 135 408v471q0 68 -10 119t-35.5 84.5t-72 52t-117.5 18.5v60h518v-60q-55 -6 -94 -18t-65.5 -39t-39 -74t-12.5 -123v-518 q0 -299 -147.5 -444.5t-438.5 -145.5q-152 0 -262.5 37t-182 100.5t-106.5 146.5t-35 175v711q0 47 -5 84t-26.5 61.5t-63.5 36.5t-115 10zM671 1513l89 234q8 20 16 34.5t20.5 21.5t28.5 10t43 3h49q31 0 41 -6t10 -27q0 -6 -6 -18t-16 -23l-203 -229h-72z" />
<glyph unicode="&#xdb;" horiz-adv-x="1642" d="M23 1337v60h632v-60q-74 2 -118.5 -7t-70.5 -29.5t-34 -52t-8 -72.5v-713q0 -182 111.5 -291t322.5 -109q127 0 210 37t130 84q135 135 135 408v471q0 68 -10 119t-35.5 84.5t-72 52t-117.5 18.5v60h518v-60q-55 -6 -94 -18t-65.5 -39t-39 -74t-12.5 -123v-518 q0 -299 -147.5 -444.5t-438.5 -145.5q-152 0 -262.5 37t-182 100.5t-106.5 146.5t-35 175v711q0 47 -5 84t-26.5 61.5t-63.5 36.5t-115 10zM553 1511l174 303h186l176 -303h-94l-195 191l-157 -191h-90z" />
<glyph unicode="&#xdc;" horiz-adv-x="1642" d="M23 1337v60h632v-60q-74 2 -118.5 -7t-70.5 -29.5t-34 -52t-8 -72.5v-713q0 -182 111.5 -291t322.5 -109q127 0 210 37t130 84q135 135 135 408v471q0 68 -10 119t-35.5 84.5t-72 52t-117.5 18.5v60h518v-60q-55 -6 -94 -18t-65.5 -39t-39 -74t-12.5 -123v-518 q0 -299 -147.5 -444.5t-438.5 -145.5q-152 0 -262.5 37t-182 100.5t-106.5 146.5t-35 175v711q0 47 -5 84t-26.5 61.5t-63.5 36.5t-115 10zM504 1663q0 41 29.5 70.5t70.5 29.5t70.5 -29.5t29.5 -70.5t-29.5 -71t-70.5 -30t-70.5 30t-29.5 71zM938 1663q0 41 29.5 70.5 t70.5 29.5t70.5 -29.5t29.5 -70.5t-29.5 -71t-70.5 -30t-70.5 30t-29.5 71z" />
<glyph unicode="&#xdd;" d="M16 1337v60h611v-60q-94 4 -131 -17.5t-37 -64.5q0 -35 19.5 -72.5t66.5 -109.5l270 -403l217 305q47 68 77 132t30 99q0 113 -158 131v60h498v-60q-33 0 -64 -12t-65.5 -43t-77.5 -84t-98 -135l-332 -481v-340q0 -47 8 -82t31.5 -58.5t63.5 -34t104 -8.5v-59h-603v59 q61 0 101.5 9.5t63 31t31.5 56t9 86.5v352l-381 565q-37 55 -65.5 89t-56 52.5t-58.5 26.5t-74 10zM596 1513l89 234q8 20 16 34.5t20.5 21.5t28.5 10t43 3h49q31 0 41 -6t10 -27q0 -6 -6 -18t-16 -23l-203 -229h-72z" />
<glyph unicode="&#xde;" horiz-adv-x="1280" d="M45 1337v60h621v-60q-57 2 -97.5 -5t-66 -26.5t-36.5 -54t-11 -88.5v-53h125q68 0 114.5 -1t80.5 -3t59.5 -5t50.5 -9q160 -35 243.5 -123t83.5 -221q0 -84 -35.5 -157t-98 -125t-148.5 -82t-187 -30q-102 0 -135 13.5t-33 35.5q0 16 11.5 26.5t34.5 10.5q14 0 40.5 -2 t36.5 -2q49 0 101.5 15.5t95.5 49.5t69.5 87t26.5 129q0 72 -23.5 133t-68.5 105t-109.5 70t-146.5 26h-188v-815q0 -53 10 -88t36.5 -55.5t69.5 -28t111 -5.5v-59h-629v59q57 -2 97 5.5t66 27t37 54t11 87.5v928q0 51 -10 86t-34.5 55.5t-67.5 28.5t-107 6z" />
<glyph unicode="&#xdf;" horiz-adv-x="1153" d="M39 0v53q86 -2 114.5 35t28.5 111v649h-141v41q0 18 12.5 25.5t30.5 11.5t37.5 9t34.5 19q18 18 27.5 58.5t23.5 91.5t35.5 103.5t64.5 95.5q53 53 126 85.5t177 32.5q82 0 151.5 -22.5t121 -61.5t80 -93t28.5 -118q0 -61 -26.5 -111t-67.5 -87t-91 -59.5t-97 -30.5v-4 q78 -14 142 -51.5t110.5 -92.5t72 -128t25.5 -156q0 -84 -26.5 -160t-72 -134.5t-104.5 -93t-125 -34.5q-76 0 -129 38.5t-53 94.5q0 37 22.5 61.5t55.5 24.5q43 0 53 -23.5t14 -53.5t16.5 -53.5t57.5 -23.5q61 0 99 68.5t38 181.5q0 96 -25.5 181t-72.5 151.5t-112.5 108.5 t-143.5 51v57q133 20 203.5 89t70.5 179q0 51 -18.5 95t-49 76t-73.5 50.5t-92 18.5q-113 0 -181.5 -75t-68.5 -210v-850q0 -78 22.5 -121t98.5 -47v-53h-424z" />
<glyph unicode="&#xe0;" horiz-adv-x="960" d="M78 197q0 49 16.5 87t56 70.5t106.5 63.5t169 65l188 64v160q0 78 -53 125t-141 47q-70 0 -121 -34t-51 -77q0 -18 8 -35.5t18.5 -34t18.5 -30t8 -23.5t-19.5 -23.5t-44 -23.5t-46 -17.5t-25.5 -7.5q-16 0 -35.5 42t-19.5 87q0 51 27.5 95.5t77.5 76t118.5 50t148.5 18.5 q154 0 222.5 -61.5t68.5 -184.5v-475q0 -102 55 -102q35 0 74 22l19 -51q-94 -113 -174 -113q-127 0 -134 164q-72 -80 -149.5 -122t-149.5 -42q-104 0 -170.5 60.5t-66.5 159.5zM244 242q0 -61 43 -100.5t110 -39.5q115 0 217 113v279l-243 -107q-127 -55 -127 -145z M334 1341q0 20 10 26.5t41 6.5h49q51 0 71.5 -13t36.5 -56l89 -234h-72l-203 229q-10 10 -16 22.5t-6 18.5z" />
<glyph unicode="&#xe1;" horiz-adv-x="960" d="M78 197q0 49 16.5 87t56 70.5t106.5 63.5t169 65l188 64v160q0 78 -53 125t-141 47q-70 0 -121 -34t-51 -77q0 -18 8 -35.5t18.5 -34t18.5 -30t8 -23.5t-19.5 -23.5t-44 -23.5t-46 -17.5t-25.5 -7.5q-16 0 -35.5 42t-19.5 87q0 51 27.5 95.5t77.5 76t118.5 50t148.5 18.5 q154 0 222.5 -61.5t68.5 -184.5v-475q0 -102 55 -102q35 0 74 22l19 -51q-94 -113 -174 -113q-127 0 -134 164q-72 -80 -149.5 -122t-149.5 -42q-104 0 -170.5 60.5t-66.5 159.5zM244 242q0 -61 43 -100.5t110 -39.5q115 0 217 113v279l-243 -107q-127 -55 -127 -145z M329 1071l89 234q8 20 16 34.5t20.5 21.5t28.5 10t43 3h49q31 0 41 -6t10 -27q0 -6 -6 -18t-16 -23l-203 -229h-72z" />
<glyph unicode="&#xe2;" horiz-adv-x="960" d="M78 197q0 49 16.5 87t56 70.5t106.5 63.5t169 65l188 64v160q0 78 -53 125t-141 47q-70 0 -121 -34t-51 -77q0 -18 8 -35.5t18.5 -34t18.5 -30t8 -23.5t-19.5 -23.5t-44 -23.5t-46 -17.5t-25.5 -7.5q-16 0 -35.5 42t-19.5 87q0 51 27.5 95.5t77.5 76t118.5 50t148.5 18.5 q154 0 222.5 -61.5t68.5 -184.5v-475q0 -102 55 -102q35 0 74 22l19 -51q-94 -113 -174 -113q-127 0 -134 164q-72 -80 -149.5 -122t-149.5 -42q-104 0 -170.5 60.5t-66.5 159.5zM211 1069l174 303h186l176 -303h-94l-195 191l-157 -191h-90zM244 242q0 -61 43 -100.5 t110 -39.5q115 0 217 113v279l-243 -107q-127 -55 -127 -145z" />
<glyph unicode="&#xe3;" horiz-adv-x="960" d="M78 197q0 49 16.5 87t56 70.5t106.5 63.5t169 65l188 64v160q0 78 -53 125t-141 47q-70 0 -121 -34t-51 -77q0 -18 8 -35.5t18.5 -34t18.5 -30t8 -23.5t-19.5 -23.5t-44 -23.5t-46 -17.5t-25.5 -7.5q-16 0 -35.5 42t-19.5 87q0 51 27.5 95.5t77.5 76t118.5 50t148.5 18.5 q154 0 222.5 -61.5t68.5 -184.5v-475q0 -102 55 -102q35 0 74 22l19 -51q-94 -113 -174 -113q-127 0 -134 164q-72 -80 -149.5 -122t-149.5 -42q-104 0 -170.5 60.5t-66.5 159.5zM157 1120q14 92 64.5 160t126.5 68q37 0 76 -16.5t76.5 -36t72.5 -36t62 -16.5 q35 0 61.5 24.5t50.5 82.5l56 -31q-10 -59 -33 -102t-50.5 -71t-56 -40t-51.5 -12q-35 0 -74 16t-77.5 36.5t-72.5 37t-59 16.5q-37 0 -61.5 -22.5t-52.5 -81.5zM244 242q0 -61 43 -100.5t110 -39.5q115 0 217 113v279l-243 -107q-127 -55 -127 -145z" />
<glyph unicode="&#xe4;" horiz-adv-x="960" d="M78 197q0 49 16.5 87t56 70.5t106.5 63.5t169 65l188 64v160q0 78 -53 125t-141 47q-70 0 -121 -34t-51 -77q0 -18 8 -35.5t18.5 -34t18.5 -30t8 -23.5t-19.5 -23.5t-44 -23.5t-46 -17.5t-25.5 -7.5q-16 0 -35.5 42t-19.5 87q0 51 27.5 95.5t77.5 76t118.5 50t148.5 18.5 q154 0 222.5 -61.5t68.5 -184.5v-475q0 -102 55 -102q35 0 74 22l19 -51q-94 -113 -174 -113q-127 0 -134 164q-72 -80 -149.5 -122t-149.5 -42q-104 0 -170.5 60.5t-66.5 159.5zM162 1221q0 41 29.5 70.5t70.5 29.5t70.5 -29.5t29.5 -70.5t-29.5 -71t-70.5 -30t-70.5 30 t-29.5 71zM244 242q0 -61 43 -100.5t110 -39.5q115 0 217 113v279l-243 -107q-127 -55 -127 -145zM596 1221q0 41 29.5 70.5t70.5 29.5t70.5 -29.5t29.5 -70.5t-29.5 -71t-70.5 -30t-70.5 30t-29.5 71z" />
<glyph unicode="&#xe5;" horiz-adv-x="960" d="M78 197q0 49 16.5 87t56 70.5t106.5 63.5t169 65l188 64v160q0 78 -53 125t-141 47q-70 0 -121 -34t-51 -77q0 -18 8 -35.5t18.5 -34t18.5 -30t8 -23.5t-19.5 -23.5t-44 -23.5t-46 -17.5t-25.5 -7.5q-16 0 -35.5 42t-19.5 87q0 51 27.5 95.5t77.5 76t118.5 50t148.5 18.5 q154 0 222.5 -61.5t68.5 -184.5v-475q0 -102 55 -102q35 0 74 22l19 -51q-94 -113 -174 -113q-127 0 -134 164q-72 -80 -149.5 -122t-149.5 -42q-104 0 -170.5 60.5t-66.5 159.5zM244 242q0 -61 43 -100.5t110 -39.5q115 0 217 113v279l-243 -107q-127 -55 -127 -145z M305 1247q0 37 14.5 69t38 55.5t55 36.5t68.5 13q72 0 123 -51t51 -123q0 -37 -13.5 -68.5t-37 -55t-55 -38t-68.5 -14.5t-68.5 14.5t-55 38t-38 55t-14.5 68.5zM366 1247q0 -47 33 -80.5t80 -33.5t81 33.5t34 80.5t-34 80t-81 33t-80 -33t-33 -80z" />
<glyph unicode="&#xe6;" horiz-adv-x="1429" d="M78 197q0 43 20.5 89t79 89t162.5 82t274 71v150q0 94 -46 146.5t-132 52.5q-23 0 -52.5 -7.5t-56 -20.5t-46 -34.5t-19.5 -48.5q0 -20 7 -37.5t16.5 -31t17.5 -26t8 -20.5q0 -12 -16 -24.5t-37.5 -23.5t-42 -18t-31.5 -7q-12 0 -24.5 14t-22.5 34.5t-17 44t-7 44.5 q0 45 33.5 86t89 72.5t129 50t153.5 18.5q86 0 139.5 -29.5t98.5 -101.5q55 68 116.5 99.5t139.5 31.5q135 0 217 -81t108 -236l-563 -125q0 -123 15.5 -189.5t56.5 -107.5t93 -60.5t110 -19.5q80 0 146.5 32.5t129.5 104.5l35 -33q-59 -117 -159.5 -183.5t-217.5 -66.5 q-207 0 -338 191q-82 -92 -170 -141.5t-172 -49.5q-98 0 -161.5 61.5t-63.5 158.5zM244 238q0 -63 40 -102.5t105 -39.5q59 0 110.5 28t114.5 91v260q-113 -25 -184.5 -52.5t-113.5 -57t-57 -62.5t-15 -65zM776 559l381 88q-16 106 -66.5 165.5t-127.5 59.5 q-82 0 -134.5 -62t-52.5 -189v-62z" />
<glyph unicode="&#xe7;" horiz-adv-x="960" d="M84 446q0 106 37 197.5t103.5 158t156.5 103.5t197 37q137 0 224 -52t87 -136q0 -41 -21.5 -64.5t-56.5 -23.5q-33 0 -50.5 16t-29.5 39.5t-23.5 52.5t-31 52.5t-52 40t-87.5 16.5q-135 0 -214 -95.5t-79 -255.5q0 -90 25.5 -164.5t72.5 -129t110.5 -85t141.5 -30.5 q143 0 268 127l41 -29q-66 -117 -165 -180.5t-210 -63.5h-24t-23 5l-24 -48q55 -10 86.5 -43.5t31.5 -80.5q0 -78 -65.5 -124t-206.5 -42v53q72 -2 114 19.5t42 64.5q0 35 -26.5 53.5t-74.5 22.5l74 131q-74 16 -138.5 57t-110.5 100.5t-72.5 136t-26.5 164.5z" />
<glyph unicode="&#xe8;" horiz-adv-x="937" d="M80 453q0 106 31.5 196t87 154.5t132.5 101.5t169 37q78 0 145.5 -27.5t117.5 -77t80.5 -115t33.5 -140.5h-658q-4 -117 26.5 -204t84 -143.5t121 -84t139.5 -27.5q78 0 133 24.5t119 88.5l35 -35q-150 -223 -367 -224q-94 0 -173 36t-136.5 98.5t-89 149.5t-31.5 192z M227 639h457q-12 117 -68.5 180.5t-148.5 63.5q-90 0 -155.5 -66.5t-84.5 -177.5zM324 1341q0 20 10 26.5t41 6.5h49q51 0 71.5 -13t36.5 -56l89 -234h-72l-203 229q-10 10 -16 22.5t-6 18.5z" />
<glyph unicode="&#xe9;" horiz-adv-x="937" d="M80 453q0 106 31.5 196t87 154.5t132.5 101.5t169 37q78 0 145.5 -27.5t117.5 -77t80.5 -115t33.5 -140.5h-658q-4 -117 26.5 -204t84 -143.5t121 -84t139.5 -27.5q78 0 133 24.5t119 88.5l35 -35q-150 -223 -367 -224q-94 0 -173 36t-136.5 98.5t-89 149.5t-31.5 192z M227 639h457q-12 117 -68.5 180.5t-148.5 63.5q-90 0 -155.5 -66.5t-84.5 -177.5zM319 1071l89 234q8 20 16 34.5t20.5 21.5t28.5 10t43 3h49q31 0 41 -6t10 -27q0 -6 -6 -18t-16 -23l-203 -229h-72z" />
<glyph unicode="&#xea;" horiz-adv-x="937" d="M80 453q0 106 31.5 196t87 154.5t132.5 101.5t169 37q78 0 145.5 -27.5t117.5 -77t80.5 -115t33.5 -140.5h-658q-4 -117 26.5 -204t84 -143.5t121 -84t139.5 -27.5q78 0 133 24.5t119 88.5l35 -35q-150 -223 -367 -224q-94 0 -173 36t-136.5 98.5t-89 149.5t-31.5 192z M201 1069l174 303h186l176 -303h-94l-195 191l-157 -191h-90zM227 639h457q-12 117 -68.5 180.5t-148.5 63.5q-90 0 -155.5 -66.5t-84.5 -177.5z" />
<glyph unicode="&#xeb;" horiz-adv-x="937" d="M80 453q0 106 31.5 196t87 154.5t132.5 101.5t169 37q78 0 145.5 -27.5t117.5 -77t80.5 -115t33.5 -140.5h-658q-4 -117 26.5 -204t84 -143.5t121 -84t139.5 -27.5q78 0 133 24.5t119 88.5l35 -35q-150 -223 -367 -224q-94 0 -173 36t-136.5 98.5t-89 149.5t-31.5 192z M152 1221q0 41 29.5 70.5t70.5 29.5t70.5 -29.5t29.5 -70.5t-29.5 -71t-70.5 -30t-70.5 30t-29.5 71zM227 639h457q-12 117 -68.5 180.5t-148.5 63.5q-90 0 -155.5 -66.5t-84.5 -177.5zM586 1221q0 41 29.5 70.5t70.5 29.5t70.5 -29.5t29.5 -70.5t-29.5 -71t-70.5 -30 t-70.5 30t-29.5 71z" />
<glyph unicode="&#xec;" horiz-adv-x="532" d="M37 0v53q51 0 82 8.5t48 28t23.5 55t6.5 91.5v520l-150 67v31l309 88v-715q0 -96 28 -135t116 -39v-53h-463zM123 1341q0 20 10 26.5t41 6.5h49q51 0 71.5 -13t36.5 -56l89 -234h-72l-203 229q-10 10 -16 22.5t-6 18.5z" />
<glyph unicode="&#xed;" horiz-adv-x="532" d="M37 0v53q51 0 82 8.5t48 28t23.5 55t6.5 91.5v520l-150 67v31l309 88v-715q0 -96 28 -135t116 -39v-53h-463zM118 1071l89 234q8 20 16 34.5t20.5 21.5t28.5 10t43 3h49q31 0 41 -6t10 -27q0 -6 -6 -18t-16 -23l-203 -229h-72z" />
<glyph unicode="&#xee;" horiz-adv-x="532" d="M0 1069l174 303h186l176 -303h-94l-195 191l-157 -191h-90zM37 0v53q51 0 82 8.5t48 28t23.5 55t6.5 91.5v520l-150 67v31l309 88v-715q0 -96 28 -135t116 -39v-53h-463z" />
<glyph unicode="&#xef;" horiz-adv-x="532" d="M-49 1221q0 41 29.5 70.5t70.5 29.5t70.5 -29.5t29.5 -70.5t-29.5 -71t-70.5 -30t-70.5 30t-29.5 71zM37 0v53q51 0 82 8.5t48 28t23.5 55t6.5 91.5v520l-150 67v31l309 88v-715q0 -96 28 -135t116 -39v-53h-463zM385 1221q0 41 29.5 70.5t70.5 29.5t70.5 -29.5 t29.5 -70.5t-29.5 -71t-70.5 -30t-70.5 30t-29.5 71z" />
<glyph unicode="&#xf0;" horiz-adv-x="1067" d="M76 461q0 98 35.5 185t96 152.5t141.5 104.5t171 39q47 0 85 -10t97 -51l5 4q-27 61 -65 135t-103 151l-203 -133l-33 45l197 131q-33 35 -74 73t-90 75l72 51q109 -53 198 -127l193 127l32 -45l-180 -121q82 -76 145.5 -167t106.5 -189t65.5 -199.5t22.5 -197.5 q0 -145 -46 -244.5t-115.5 -160t-148.5 -86.5t-146 -26q-96 0 -180.5 38t-146 102.5t-97 152.5t-35.5 191zM236 563q0 -74 17 -165t57 -171t103.5 -135t155.5 -55q123 0 192.5 91t69.5 251q0 51 -15 136t-52 167t-99.5 141.5t-158.5 59.5q-123 0 -196.5 -87t-73.5 -233z" />
<glyph unicode="&#xf1;" horiz-adv-x="1153" d="M41 0v53q43 0 72.5 7.5t48 26.5t26 54t7.5 90v523l-146 67v29l305 92v-176q78 78 167 127t188 49q117 0 194.5 -74.5t77.5 -222.5v-424q0 -49 6 -80.5t23.5 -51t46 -28t73.5 -8.5v-53h-468v53q49 0 80.5 8.5t49 30t23.5 55t6 82.5v404q0 82 -49 135t-135 53 q-72 0 -146.5 -31.5t-136.5 -91.5v-465q0 -49 4 -83.5t21.5 -56t50.5 -32t88 -8.5v-53h-477zM254 1120q14 92 64.5 160t126.5 68q37 0 76 -16.5t76.5 -36t72.5 -36t62 -16.5q35 0 61.5 24.5t50.5 82.5l56 -31q-10 -59 -33 -102t-50.5 -71t-56 -40t-51.5 -12q-35 0 -74 16 t-77.5 36.5t-72.5 37t-59 16.5q-37 0 -61.5 -22.5t-52.5 -81.5z" />
<glyph unicode="&#xf2;" horiz-adv-x="1087" d="M84 459q0 104 35 192t97.5 152.5t146 101.5t182.5 37q98 0 182 -37t145.5 -100.5t96.5 -150.5t35 -187q0 -102 -35 -192.5t-96.5 -156t-144.5 -103.5t-179 -38q-100 0 -185 36t-147.5 100.5t-97.5 153t-35 192.5zM244 549q0 -49 9 -108.5t28.5 -120t49 -115.5t68.5 -94 q25 -25 70 -49.5t113 -24.5q57 0 105 22.5t83 63.5t54.5 97t19.5 124q0 37 -6.5 96.5t-22.5 127t-47 133t-80 114.5q-29 29 -72 48.5t-94 19.5q-49 0 -98 -16.5t-89 -55.5t-65.5 -103.5t-25.5 -158.5zM398 1341q0 20 10 26.5t41 6.5h49q51 0 71.5 -13t36.5 -56l89 -234h-72 l-203 229q-10 10 -16 22.5t-6 18.5z" />
<glyph unicode="&#xf3;" horiz-adv-x="1087" d="M84 459q0 104 35 192t97.5 152.5t146 101.5t182.5 37q98 0 182 -37t145.5 -100.5t96.5 -150.5t35 -187q0 -102 -35 -192.5t-96.5 -156t-144.5 -103.5t-179 -38q-100 0 -185 36t-147.5 100.5t-97.5 153t-35 192.5zM244 549q0 -49 9 -108.5t28.5 -120t49 -115.5t68.5 -94 q25 -25 70 -49.5t113 -24.5q57 0 105 22.5t83 63.5t54.5 97t19.5 124q0 37 -6.5 96.5t-22.5 127t-47 133t-80 114.5q-29 29 -72 48.5t-94 19.5q-49 0 -98 -16.5t-89 -55.5t-65.5 -103.5t-25.5 -158.5zM393 1071l89 234q8 20 16 34.5t20.5 21.5t28.5 10t43 3h49q31 0 41 -6 t10 -27q0 -6 -6 -18t-16 -23l-203 -229h-72z" />
<glyph unicode="&#xf4;" horiz-adv-x="1087" d="M84 459q0 104 35 192t97.5 152.5t146 101.5t182.5 37q98 0 182 -37t145.5 -100.5t96.5 -150.5t35 -187q0 -102 -35 -192.5t-96.5 -156t-144.5 -103.5t-179 -38q-100 0 -185 36t-147.5 100.5t-97.5 153t-35 192.5zM244 549q0 -49 9 -108.5t28.5 -120t49 -115.5t68.5 -94 q25 -25 70 -49.5t113 -24.5q57 0 105 22.5t83 63.5t54.5 97t19.5 124q0 37 -6.5 96.5t-22.5 127t-47 133t-80 114.5q-29 29 -72 48.5t-94 19.5q-49 0 -98 -16.5t-89 -55.5t-65.5 -103.5t-25.5 -158.5zM275 1069l174 303h186l176 -303h-94l-195 191l-157 -191h-90z" />
<glyph unicode="&#xf5;" horiz-adv-x="1087" d="M84 459q0 104 35 192t97.5 152.5t146 101.5t182.5 37q98 0 182 -37t145.5 -100.5t96.5 -150.5t35 -187q0 -102 -35 -192.5t-96.5 -156t-144.5 -103.5t-179 -38q-100 0 -185 36t-147.5 100.5t-97.5 153t-35 192.5zM221 1120q14 92 64.5 160t126.5 68q37 0 76 -16.5 t76.5 -36t72.5 -36t62 -16.5q35 0 61.5 24.5t50.5 82.5l56 -31q-10 -59 -33 -102t-50.5 -71t-56 -40t-51.5 -12q-35 0 -74 16t-77.5 36.5t-72.5 37t-59 16.5q-37 0 -61.5 -22.5t-52.5 -81.5zM244 549q0 -49 9 -108.5t28.5 -120t49 -115.5t68.5 -94q25 -25 70 -49.5 t113 -24.5q57 0 105 22.5t83 63.5t54.5 97t19.5 124q0 37 -6.5 96.5t-22.5 127t-47 133t-80 114.5q-29 29 -72 48.5t-94 19.5q-49 0 -98 -16.5t-89 -55.5t-65.5 -103.5t-25.5 -158.5z" />
<glyph unicode="&#xf6;" horiz-adv-x="1087" d="M84 459q0 104 35 192t97.5 152.5t146 101.5t182.5 37q98 0 182 -37t145.5 -100.5t96.5 -150.5t35 -187q0 -102 -35 -192.5t-96.5 -156t-144.5 -103.5t-179 -38q-100 0 -185 36t-147.5 100.5t-97.5 153t-35 192.5zM226 1221q0 41 29.5 70.5t70.5 29.5t70.5 -29.5 t29.5 -70.5t-29.5 -71t-70.5 -30t-70.5 30t-29.5 71zM244 549q0 -49 9 -108.5t28.5 -120t49 -115.5t68.5 -94q25 -25 70 -49.5t113 -24.5q57 0 105 22.5t83 63.5t54.5 97t19.5 124q0 37 -6.5 96.5t-22.5 127t-47 133t-80 114.5q-29 29 -72 48.5t-94 19.5q-49 0 -98 -16.5 t-89 -55.5t-65.5 -103.5t-25.5 -158.5zM660 1221q0 41 29.5 70.5t70.5 29.5t70.5 -29.5t29.5 -70.5t-29.5 -71t-70.5 -30t-70.5 30t-29.5 71z" />
<glyph unicode="&#xf7;" horiz-adv-x="1368" d="M143 485v109h1080v-109h-1080zM610 131q0 31 21.5 51.5t52.5 20.5t51.5 -20.5t20.5 -51.5t-20.5 -52.5t-51.5 -21.5t-52.5 21.5t-21.5 52.5zM610 950q0 31 21.5 51.5t52.5 20.5t51.5 -20.5t20.5 -51.5t-20.5 -52t-51.5 -21t-52.5 21.5t-21.5 51.5z" />
<glyph unicode="&#xf8;" horiz-adv-x="1087" d="M53 -25l144 160q-51 66 -82 143t-31 181t35 192t97.5 152.5t146 101.5t182.5 37q80 0 157.5 -27.5t131.5 -74.5l139 155l39 -37l-140 -153q61 -66 96.5 -151t35.5 -187t-35 -192.5t-96.5 -156t-144.5 -103.5t-179 -38q-184 0 -313 119l-144 -157zM244 549q0 -43 6 -87 t15 -83t20.5 -71t21.5 -50l436 483q-35 59 -88 100.5t-133 41.5q-49 0 -98 -16.5t-89 -55.5t-65.5 -103.5t-25.5 -158.5zM332 205q35 -72 99.5 -120t150.5 -48q57 0 105 22.5t83 63.5t54.5 97t19.5 124q0 70 -15.5 162t-56.5 186z" />
<glyph unicode="&#xf9;" horiz-adv-x="1153" d="M14 868v54q78 2 130.5 3t86.5 3q37 4 60.5 5t42.5 5v-631q0 -102 50 -152.5t146 -50.5q139 0 271 119v484q0 43 -6.5 73.5t-24.5 50t-51 28.5t-86 9v54q66 0 116 2t87 4q39 4 68.5 6t56.5 4v-745q0 -43 9 -66t27.5 -32t47 -9t67.5 4v-53l-311 -57v178 q-78 -86 -170 -133.5t-180 -47.5q-53 0 -103.5 17.5t-88.5 54.5t-61.5 91.5t-23.5 127.5v457q0 74 -31.5 103.5t-128.5 39.5zM431 1341q0 20 10 26.5t41 6.5h49q51 0 71.5 -13t36.5 -56l89 -234h-72l-203 229q-10 10 -16 22.5t-6 18.5z" />
<glyph unicode="&#xfa;" horiz-adv-x="1153" d="M14 868v54q78 2 130.5 3t86.5 3q37 4 60.5 5t42.5 5v-631q0 -102 50 -152.5t146 -50.5q139 0 271 119v484q0 43 -6.5 73.5t-24.5 50t-51 28.5t-86 9v54q66 0 116 2t87 4q39 4 68.5 6t56.5 4v-745q0 -43 9 -66t27.5 -32t47 -9t67.5 4v-53l-311 -57v178 q-78 -86 -170 -133.5t-180 -47.5q-53 0 -103.5 17.5t-88.5 54.5t-61.5 91.5t-23.5 127.5v457q0 74 -31.5 103.5t-128.5 39.5zM426 1071l89 234q8 20 16 34.5t20.5 21.5t28.5 10t43 3h49q31 0 41 -6t10 -27q0 -6 -6 -18t-16 -23l-203 -229h-72z" />
<glyph unicode="&#xfb;" horiz-adv-x="1153" d="M14 868v54q78 2 130.5 3t86.5 3q37 4 60.5 5t42.5 5v-631q0 -102 50 -152.5t146 -50.5q139 0 271 119v484q0 43 -6.5 73.5t-24.5 50t-51 28.5t-86 9v54q66 0 116 2t87 4q39 4 68.5 6t56.5 4v-745q0 -43 9 -66t27.5 -32t47 -9t67.5 4v-53l-311 -57v178 q-78 -86 -170 -133.5t-180 -47.5q-53 0 -103.5 17.5t-88.5 54.5t-61.5 91.5t-23.5 127.5v457q0 74 -31.5 103.5t-128.5 39.5zM308 1069l174 303h186l176 -303h-94l-195 191l-157 -191h-90z" />
<glyph unicode="&#xfc;" horiz-adv-x="1153" d="M14 868v54q78 2 130.5 3t86.5 3q37 4 60.5 5t42.5 5v-631q0 -102 50 -152.5t146 -50.5q139 0 271 119v484q0 43 -6.5 73.5t-24.5 50t-51 28.5t-86 9v54q66 0 116 2t87 4q39 4 68.5 6t56.5 4v-745q0 -43 9 -66t27.5 -32t47 -9t67.5 4v-53l-311 -57v178 q-78 -86 -170 -133.5t-180 -47.5q-53 0 -103.5 17.5t-88.5 54.5t-61.5 91.5t-23.5 127.5v457q0 74 -31.5 103.5t-128.5 39.5zM259 1221q0 41 29.5 70.5t70.5 29.5t70.5 -29.5t29.5 -70.5t-29.5 -71t-70.5 -30t-70.5 30t-29.5 71zM693 1221q0 41 29.5 70.5t70.5 29.5 t70.5 -29.5t29.5 -70.5t-29.5 -71t-70.5 -30t-70.5 30t-29.5 71z" />
<glyph unicode="&#xfd;" horiz-adv-x="1024" d="M25 868v54h434v-54q-66 -4 -94.5 -20.5t-28.5 -50.5q0 -27 11 -62t46 -110l197 -437l129 338q37 96 53 151.5t16 80.5q0 49 -28.5 74.5t-95.5 35.5v54h337v-54q-33 -6 -56 -19t-43.5 -38t-40 -67t-44.5 -105l-287 -764q-41 -111 -110.5 -185.5t-169.5 -74.5 q-70 0 -115 31.5t-45 79.5q0 35 24.5 60.5t55.5 25.5q25 0 39 -11.5t29.5 -24t34 -23.5t49.5 -11q59 0 103 56.5t91 191.5l-336 737q-18 41 -34.5 67.5t-33 42t-37 22.5t-50.5 9zM362 1071l89 234q8 20 16 34.5t20.5 21.5t28.5 10t43 3h49q31 0 41 -6t10 -27q0 -6 -6 -18 t-16 -23l-203 -229h-72z" />
<glyph unicode="&#xfe;" horiz-adv-x="1173" d="M35 -332q80 0 113.5 32t33.5 107v1426l-147 70v28l307 90v-651q160 172 338 172q84 0 155.5 -32.5t124 -91t82 -138.5t29.5 -174q0 -104 -39 -200.5t-105.5 -169.5t-154.5 -116t-184 -43q-66 0 -129.5 19.5t-116.5 56.5v-239q0 -88 38 -118t144 -28v-53h-489v53zM342 358 q0 -68 20.5 -125t57.5 -99t89 -66.5t118 -24.5q129 0 206.5 101.5t77.5 269.5q0 92 -22.5 168.5t-64.5 130t-101 83t-131 29.5q-68 0 -127 -29.5t-123 -95.5v-342z" />
<glyph unicode="&#xff;" horiz-adv-x="1024" d="M25 868v54h434v-54q-66 -4 -94.5 -20.5t-28.5 -50.5q0 -27 11 -62t46 -110l197 -437l129 338q37 96 53 151.5t16 80.5q0 49 -28.5 74.5t-95.5 35.5v54h337v-54q-33 -6 -56 -19t-43.5 -38t-40 -67t-44.5 -105l-287 -764q-41 -111 -110.5 -185.5t-169.5 -74.5 q-70 0 -115 31.5t-45 79.5q0 35 24.5 60.5t55.5 25.5q25 0 39 -11.5t29.5 -24t34 -23.5t49.5 -11q59 0 103 56.5t91 191.5l-336 737q-18 41 -34.5 67.5t-33 42t-37 22.5t-50.5 9zM195 1221q0 41 29.5 70.5t70.5 29.5t70.5 -29.5t29.5 -70.5t-29.5 -71t-70.5 -30t-70.5 30 t-29.5 71zM629 1221q0 41 29.5 70.5t70.5 29.5t70.5 -29.5t29.5 -70.5t-29.5 -71t-70.5 -30t-70.5 30t-29.5 71z" />
<glyph unicode="&#x152;" horiz-adv-x="2134" d="M113 690q0 150 52 279t141 224t204 149.5t242 54.5h1222l15 -310h-54q-27 70 -53.5 117t-64 77t-92 43t-134.5 13h-563v-4q86 -47 150.5 -104.5t109.5 -126t70.5 -152.5t36.5 -184h219q98 0 140 49t46 162h60v-502h-60q0 61 -17.5 105.5t-47 72t-69.5 41t-83 13.5h-188 q4 -207 -91.5 -372t-261.5 -272v-4h625q111 0 193 74t147 219h66l-66 -352h-1212q-156 0 -282 56.5t-215 151.5t-137 220t-48 262zM328 807q0 -129 28.5 -260t87 -236.5t144.5 -173t203 -67.5q88 0 158.5 42t120.5 116.5t77 181t27 235.5q0 205 -53.5 353.5t-125.5 220.5 q-53 53 -112.5 80.5t-141.5 27.5q-92 0 -167.5 -37t-131 -105.5t-85 -164.5t-29.5 -213z" />
<glyph unicode="&#x153;" horiz-adv-x="1536" d="M84 461q0 100 33 188t90 152.5t135 102.5t166 38t171 -41t144 -115q115 156 291 156q150 0 246 -97t108 -263h-579q18 -459 332 -459q74 0 128 30.5t105 98.5l39 -25q-55 -117 -147.5 -183.5t-192.5 -66.5q-88 0 -172 45.5t-143 122.5q-160 -168 -330 -168q-86 0 -164 39 t-135 104.5t-91 153.5t-34 187zM260 553q0 -109 14.5 -202t47 -163.5t82 -110.5t120.5 -40q104 0 162.5 83t58.5 228t-20 246.5t-56 166t-84 93.5t-102 29q-104 0 -163.5 -88t-59.5 -242zM891 639h389q-8 111 -60.5 177.5t-132.5 66.5q-84 0 -135 -64.5t-61 -179.5z" />
<glyph unicode="&#x178;" d="M16 1337v60h611v-60q-94 4 -131 -17.5t-37 -64.5q0 -35 19.5 -72.5t66.5 -109.5l270 -403l217 305q47 68 77 132t30 99q0 113 -158 131v60h498v-60q-33 0 -64 -12t-65.5 -43t-77.5 -84t-98 -135l-332 -481v-340q0 -47 8 -82t31.5 -58.5t63.5 -34t104 -8.5v-59h-603v59 q61 0 101.5 9.5t63 31t31.5 56t9 86.5v352l-381 565q-37 55 -65.5 89t-56 52.5t-58.5 26.5t-74 10zM429 1663q0 41 29.5 70.5t70.5 29.5t70.5 -29.5t29.5 -70.5t-29.5 -71t-70.5 -30t-70.5 30t-29.5 71zM863 1663q0 41 29.5 70.5t70.5 29.5t70.5 -29.5t29.5 -70.5t-29.5 -71 t-70.5 -30t-70.5 30t-29.5 71z" />
<glyph unicode="&#x2c6;" horiz-adv-x="681" d="M72 1069l174 303h186l176 -303h-94l-195 191l-157 -191h-90z" />
<glyph unicode="&#x2dc;" horiz-adv-x="681" d="M18 1120q14 92 64.5 160t126.5 68q37 0 76 -16.5t76.5 -36t72.5 -36t62 -16.5q35 0 61.5 24.5t50.5 82.5l56 -31q-10 -59 -33 -102t-50.5 -71t-56 -40t-51.5 -12q-35 0 -74 16t-77.5 36.5t-72.5 37t-59 16.5q-37 0 -61.5 -22.5t-52.5 -81.5z" />
<glyph unicode="&#x2000;" horiz-adv-x="931" />
<glyph unicode="&#x2001;" horiz-adv-x="1863" />
<glyph unicode="&#x2002;" horiz-adv-x="931" />
<glyph unicode="&#x2003;" horiz-adv-x="1863" />
<glyph unicode="&#x2004;" horiz-adv-x="621" />
<glyph unicode="&#x2005;" horiz-adv-x="465" />
<glyph unicode="&#x2006;" horiz-adv-x="310" />
<glyph unicode="&#x2007;" horiz-adv-x="310" />
<glyph unicode="&#x2008;" horiz-adv-x="232" />
<glyph unicode="&#x2009;" horiz-adv-x="372" />
<glyph unicode="&#x200a;" horiz-adv-x="103" />
<glyph unicode="&#x2010;" horiz-adv-x="768" d="M78 389v148h614v-148h-614z" />
<glyph unicode="&#x2011;" horiz-adv-x="768" d="M78 389v148h614v-148h-614z" />
<glyph unicode="&#x2012;" horiz-adv-x="768" d="M78 389v148h614v-148h-614z" />
<glyph unicode="&#x2013;" horiz-adv-x="1024" d="M-12 446v132h1048v-132h-1048z" />
<glyph unicode="&#x2014;" horiz-adv-x="2048" d="M-12 446v132h2072v-132h-2072z" />
<glyph unicode="&#x2018;" horiz-adv-x="555" d="M121 1092q0 106 76.5 195t208.5 134l18 -51q-98 -35 -149.5 -90t-51.5 -127q0 -37 14.5 -59.5t41.5 -22.5q10 0 24 2t25 2q51 0 76.5 -29.5t25.5 -64.5q0 -47 -31.5 -77t-85.5 -30q-41 0 -75.5 17.5t-60 47.5t-41 69t-15.5 84z" />
<glyph unicode="&#x2019;" horiz-adv-x="555" d="M125 1315q0 47 31.5 76.5t85.5 29.5q39 0 74.5 -17.5t61 -47t41 -68.5t15.5 -84q0 -106 -76.5 -195t-207.5 -135l-19 52q98 35 149.5 90t51.5 127q0 37 -14.5 59.5t-41.5 22.5q-10 0 -24 -2t-25 -2q-51 0 -76.5 29.5t-25.5 64.5z" />
<glyph unicode="&#x201a;" horiz-adv-x="555" d="M125 125q0 47 31.5 76.5t85.5 29.5q39 0 74.5 -17t61 -47t41 -69t15.5 -84q0 -106 -76.5 -195t-207.5 -134l-19 51q98 35 149.5 90t51.5 127q0 37 -14.5 59.5t-41.5 22.5q-10 0 -24 -2t-25 -2q-51 0 -76.5 29.5t-25.5 64.5z" />
<glyph unicode="&#x201c;" horiz-adv-x="1067" d="M109 1092q0 106 76.5 195t207.5 134l19 -51q-98 -35 -149.5 -90t-51.5 -127q0 -37 14.5 -59.5t40.5 -22.5q10 0 24.5 2t24.5 2q51 0 77 -29.5t26 -64.5q0 -47 -32 -77t-85 -30q-41 0 -76 17.5t-60.5 47.5t-40.5 69t-15 84zM610 1092q0 106 77 195t208 134l18 -51 q-98 -35 -149 -90t-51 -127q0 -37 14 -59.5t41 -22.5q10 0 24.5 2t24.5 2q51 0 77 -29.5t26 -64.5q0 -47 -32 -77t-85 -30q-41 0 -76 17.5t-60.5 47.5t-41 69t-15.5 84z" />
<glyph unicode="&#x201d;" horiz-adv-x="1067" d="M147 1315q0 47 32 76.5t85 29.5q39 0 75 -17.5t61.5 -47t41 -68.5t15.5 -84q0 -106 -77 -195t-208 -135l-18 52q98 35 149 90t51 127q0 37 -14 59.5t-41 22.5q-10 0 -24.5 -2t-24.5 -2q-51 0 -77 29.5t-26 64.5zM649 1315q0 47 32 76.5t85 29.5q39 0 75 -17.5t61.5 -47 t40.5 -68.5t15 -84q0 -106 -76.5 -195t-207.5 -135l-19 52q98 35 149.5 90t51.5 127q0 37 -14.5 59.5t-40.5 22.5q-10 0 -24.5 -2t-24.5 -2q-51 0 -77 29.5t-26 64.5z" />
<glyph unicode="&#x201e;" horiz-adv-x="1067" d="M117 125q0 47 31.5 76.5t84.5 29.5q39 0 75 -17t61.5 -47t41 -69t15.5 -84q0 -106 -77 -195t-208 -134l-18 51q98 35 149.5 90t51.5 127q0 37 -14.5 59.5t-41.5 22.5q-10 0 -24.5 -2t-24.5 -2q-51 0 -76.5 29.5t-25.5 64.5zM618 125q0 47 32 76.5t85 29.5q39 0 75 -17 t61.5 -47t41 -69t15.5 -84q0 -106 -77 -195t-208 -134l-18 51q98 35 149 90t51 127q0 37 -14 59.5t-41 22.5q-10 0 -24.5 -2t-24.5 -2q-51 0 -77 29.5t-26 64.5z" />
<glyph unicode="&#x2022;" horiz-adv-x="575" d="M23 676q0 55 20 103t56 84t84.5 56.5t103.5 20.5t103 -20.5t84 -56.5t56.5 -84t20.5 -103t-20.5 -103.5t-56.5 -84t-84 -56t-103 -20.5t-103.5 20.5t-84.5 56t-56 84t-20 103.5z" />
<glyph unicode="&#x2026;" horiz-adv-x="2048" d="M229 90q0 47 33 80t80 33t80 -33t33 -80t-33 -80t-80 -33t-80 33t-33 80zM911 90q0 47 33 80t80 33t80 -33t33 -80t-33 -80t-80 -33t-80 33t-33 80zM1593 90q0 47 33 80t80 33t80 -33t33 -80t-33 -80t-80 -33t-80 33t-33 80z" />
<glyph unicode="&#x202f;" horiz-adv-x="372" />
<glyph unicode="&#x2039;" horiz-adv-x="491" d="M92 512l301 459h35l-178 -459l178 -459h-35z" />
<glyph unicode="&#x203a;" horiz-adv-x="491" d="M63 53l179 459l-179 459h35l301 -459l-301 -459h-35z" />
<glyph unicode="&#x205f;" horiz-adv-x="465" />
<glyph unicode="&#x2122;" horiz-adv-x="1855" d="M-66 1145l13 211h745l15 -211h-35q-10 88 -53.5 119.5t-141.5 31.5h-59v-581q0 -41 4 -66.5t15.5 -39t31.5 -19.5t53 -6v-35h-403v35q35 2 55.5 7t30.5 18.5t13 38t3 67.5v581h-61q-96 0 -137 -32.5t-56 -118.5h-33zM793 549v35q37 0 58 5t32.5 18.5t15.5 39t4 68.5v469 q0 45 -4 71.5t-15.5 41t-33 18.5t-57.5 4v37h317l256 -543l252 543h303v-37q-35 0 -55.5 -5t-31.5 -19.5t-15 -41t-4 -69.5v-469q0 -41 3 -65.5t14 -39t32.5 -19.5t56.5 -7v-35h-420v35q37 0 60.5 5t36 19.5t16.5 40t4 66.5v495h-4l-307 -661h-31l-307 655h-4v-502 q0 -37 4 -60.5t17 -35.5t38 -17t66 -5v-35h-297z" />
<glyph unicode="&#xe000;" horiz-adv-x="921" d="M0 0v922h922v-922h-922z" />
</font>
</defs>
</svg>
